<?xml version="1.0" standalone="no"?>
<!DOCTYPE svg PUBLIC "-//W3C//DTD SVG 20010904//EN"
 "http://www.w3.org/TR/2001/REC-SVG-20010904/DTD/svg10.dtd">
<svg version="1.0" xmlns="http://www.w3.org/2000/svg"
 width="567.000000pt" height="966.000000pt" viewBox="0 0 567.000000 966.000000"
 preserveAspectRatio="xMidYMid meet">

<g transform="translate(0.000000,966.000000) scale(0.100000,-0.100000)"
fill="#000000" stroke="none">
<path d="M2774 9534 c-18 -14 -18 -15 4 -4 12 6 22 13 22 15 0 8 -5 6 -26 -11z"/>
<path d="M2808 9516 c-41 -36 -50 -53 -19 -36 16 8 69 71 59 70 -2 -1 -20 -16
-40 -34z"/>
<path d="M2865 9524 c-28 -25 -29 -25 -3 -10 15 9 35 15 45 14 10 0 27 0 38 1
17 1 18 3 5 11 -25 16 -54 11 -85 -16z"/>
<path d="M2871 9499 c-18 -11 -31 -23 -28 -26 6 -5 67 34 67 43 0 6 -3 5 -39
-17z"/>
<path d="M2905 9486 c-13 -13 -25 -22 -27 -20 -2 1 -4 -5 -4 -15 0 -18 3 -18
44 2 24 12 39 23 33 25 -5 2 -19 -2 -30 -8 -17 -9 -20 -8 -15 5 4 8 20 19 38
24 25 8 27 9 8 10 -13 1 -34 -10 -47 -23z"/>
<path d="M2674 9448 l-19 -23 23 19 c21 18 27 26 19 26 -2 0 -12 -10 -23 -22z"/>
<path d="M2949 9433 c-13 -16 -12 -17 4 -4 9 7 17 15 17 17 0 8 -8 3 -21 -13z"/>
<path d="M2860 9399 c-19 -16 -29 -29 -23 -29 15 0 70 47 63 53 -3 3 -21 -8
-40 -24z"/>
<path d="M2616 9395 c-31 -47 -4 -53 49 -10 18 14 16 14 -14 -1 l-35 -17 17
27 c10 14 13 26 8 26 -5 0 -16 -11 -25 -25z"/>
<path d="M2754 9406 c-10 -8 -16 -17 -13 -20 3 -3 14 3 24 14 21 23 17 26 -11
6z"/>
<path d="M2950 9410 c-8 -5 -15 -14 -15 -20 0 -6 -11 -20 -25 -31 -14 -12 -19
-18 -12 -14 6 3 12 1 12 -6 0 -8 5 -7 18 3 9 9 23 14 30 12 7 -1 8 0 3 2 -7 4
-5 15 5 29 16 25 7 39 -16 25z"/>
<path d="M3196 9390 c3 -14 10 -29 15 -34 14 -16 10 6 -7 34 l-15 25 7 -25z"/>
<path d="M3231 9398 c0 -7 9 -33 20 -58 18 -42 19 -43 13 -10 -8 42 -21 80
-29 80 -3 0 -5 -6 -4 -12z"/>
<path d="M2784 9349 c-17 -18 -22 -28 -12 -24 14 6 55 55 45 55 -2 0 -16 -14
-33 -31z"/>
<path d="M2684 9335 c-16 -12 -16 -14 -3 -15 9 0 22 7 29 15 16 19 0 19 -26 0z"/>
<path d="M2735 9309 c-4 -6 -5 -12 -2 -15 2 -3 7 2 10 11 7 17 1 20 -8 4z"/>
<path d="M2619 9298 c0 -2 -2 -12 -4 -22 -2 -10 -10 -23 -17 -27 -9 -6 -10 -9
-1 -9 7 0 17 9 23 20 6 11 16 17 25 14 8 -4 15 -2 15 4 0 11 -38 29 -41 20z"/>
<path d="M2780 9278 c-11 -12 -20 -29 -20 -37 0 -13 2 -14 9 -2 7 11 10 9 15
-7 4 -12 -1 -35 -14 -59 -23 -44 -25 -59 -7 -66 9 -4 8 -8 -3 -16 -14 -10 -2
-11 64 -2 5 0 4 7 -2 14 -8 9 1 12 39 10 42 -1 48 1 38 13 -9 11 -8 14 2 15 8
0 4 5 -8 11 -13 6 -23 15 -23 20 0 4 -8 8 -17 8 -15 0 -16 -2 -3 -10 11 -7 12
-10 2 -10 -14 0 -42 24 -42 35 0 4 7 5 15 1 9 -3 15 0 15 10 0 11 -6 14 -22 8
-22 -6 -22 -6 -7 12 9 11 19 27 22 37 4 10 11 15 17 12 6 -3 7 1 4 9 -3 9 -9
16 -13 16 -13 0 -31 -24 -31 -42 0 -10 -4 -18 -10 -18 -12 0 -12 2 0 34 12 32
7 33 -20 4z"/>
<path d="M2879 9273 c-13 -16 -12 -17 4 -4 9 7 17 15 17 17 0 8 -8 3 -21 -13z"/>
<path d="M2906 9275 c-9 -26 -7 -32 5 -12 6 10 9 21 6 23 -2 3 -7 -2 -11 -11z"/>
<path d="M3091 9254 c0 -11 3 -14 6 -6 3 7 2 16 -1 19 -3 4 -6 -2 -5 -13z"/>
<path d="M2627 9223 c-12 -12 -7 -22 8 -17 8 4 15 10 15 15 0 11 -14 12 -23 2z"/>
<path d="M2915 9220 c-3 -5 -1 -10 4 -10 6 0 11 5 11 10 0 6 -2 10 -4 10 -3 0
-8 -4 -11 -10z"/>
<path d="M3071 9204 c0 -11 3 -14 6 -6 3 7 2 16 -1 19 -3 4 -6 -2 -5 -13z"/>
<path d="M3060 9140 c8 -5 20 -10 25 -10 6 0 3 5 -5 10 -8 5 -19 10 -25 10 -5
0 -3 -5 5 -10z"/>
<path d="M3200 9136 c0 -2 8 -10 18 -17 15 -13 16 -12 3 4 -13 16 -21 21 -21
13z"/>
<path d="M3028 9097 c7 -7 9 -17 5 -20 -8 -9 41 -54 54 -50 6 2 13 -4 17 -13
5 -14 4 -15 -9 -4 -10 8 -15 9 -15 2 0 -6 -7 -9 -16 -5 -14 5 -13 3 2 -15 10
-12 26 -22 36 -22 10 0 18 -6 18 -13 0 -7 5 -18 12 -25 7 -7 13 -28 14 -48 0
-19 6 -40 13 -47 9 -9 10 4 7 56 -3 37 -8 72 -11 77 -3 5 -1 11 5 15 5 3 10
-1 10 -9 0 -9 5 -16 11 -16 7 0 9 9 5 24 -4 15 -1 26 7 29 9 3 9 9 -2 30 -8
14 -18 24 -22 21 -5 -3 -30 7 -56 21 -27 15 -42 21 -35 14 24 -26 11 -31 -25
-9 -20 12 -31 15 -25 7z m112 -52 c7 -9 8 -15 2 -15 -5 0 -12 7 -16 15 -3 8
-4 15 -2 15 2 0 9 -7 16 -15z"/>
<path d="M2890 9088 c0 -5 -14 -8 -32 -6 -20 2 -33 -2 -36 -11 -3 -8 0 -11 7
-7 6 4 11 2 11 -5 0 -8 4 -8 13 -1 6 6 28 14 47 19 31 8 32 10 13 15 -13 3
-23 2 -23 -4z"/>
<path d="M2775 9070 c-3 -5 -1 -10 4 -10 6 0 11 5 11 10 0 6 -2 10 -4 10 -3 0
-8 -4 -11 -10z"/>
<path d="M3311 9034 c0 -11 3 -14 6 -6 3 7 2 16 -1 19 -3 4 -6 -2 -5 -13z"/>
<path d="M3000 9035 c0 -2 10 -10 23 -16 20 -11 21 -11 8 4 -13 16 -31 23 -31
12z"/>
<path d="M2891 9017 c2 -1 13 -9 24 -17 19 -14 19 -14 6 3 -7 9 -18 17 -24 17
-6 0 -8 -1 -6 -3z"/>
<path d="M2980 8990 c0 -5 5 -10 11 -10 5 0 7 5 4 10 -3 6 -8 10 -11 10 -2 0
-4 -4 -4 -10z"/>
<path d="M3330 8981 c0 -25 6 -27 13 -6 4 8 2 17 -3 20 -6 4 -10 -3 -10 -14z"/>
<path d="M2980 8961 c0 -5 7 -12 16 -15 14 -5 15 -4 4 9 -14 17 -20 19 -20 6z"/>
<path d="M3251 8944 c0 -11 3 -14 6 -6 3 7 2 16 -1 19 -3 4 -6 -2 -5 -13z"/>
<path d="M3218 8795 c2 -14 9 -25 14 -25 6 0 7 7 4 16 -3 9 -6 20 -6 25 0 5
-4 9 -9 9 -4 0 -6 -11 -3 -25z"/>
<path d="M2400 8721 c5 -11 12 -39 15 -62 3 -23 8 -45 10 -50 3 -4 1 -10 -5
-14 -6 -4 -7 -12 0 -24 6 -12 5 -22 -3 -30 -9 -10 -8 -15 6 -25 9 -7 17 -19
17 -26 0 -7 3 -10 7 -6 4 4 13 -8 19 -26 l12 -33 1 33 c1 17 6 32 12 32 6 0 8
-7 5 -17 -4 -9 1 -23 13 -34 22 -21 33 -7 21 27 -6 15 -3 24 11 32 12 8 19 8
19 2 0 -7 7 -8 18 -2 9 5 31 6 47 3 25 -5 31 -11 33 -39 2 -18 7 -30 13 -27 5
3 6 -1 3 -9 -5 -12 1 -16 22 -17 l29 -1 -30 -10 c-16 -6 -36 -15 -42 -21 -20
-15 -15 -29 6 -22 11 3 22 1 26 -5 5 -8 11 -8 21 1 9 8 14 8 14 1 0 -6 -8 -16
-17 -21 -15 -9 -12 -11 17 -12 l35 -1 -35 -10 c-19 -5 -38 -14 -41 -20 -3 -5
-38 -12 -76 -15 l-70 -5 -25 33 c-23 31 -37 59 -44 84 -12 48 -47 106 -73 119
-16 9 -31 16 -33 16 -8 0 -7 -144 1 -154 4 -6 11 -44 15 -85 5 -62 11 -80 38
-114 23 -29 26 -37 12 -29 -26 14 -62 87 -69 142 -10 72 -59 277 -63 258 -2
-9 6 -62 17 -118 10 -56 18 -120 17 -141 -2 -24 2 -43 10 -50 8 -6 14 -21 14
-33 0 -26 56 -106 74 -106 7 0 30 -13 51 -28 56 -42 74 -120 74 -319 1 -149 0
-154 -29 -218 -16 -36 -30 -70 -30 -76 0 -5 -7 -21 -16 -34 -10 -16 -12 -25
-5 -25 6 0 15 10 20 23 5 12 26 58 46 102 95 206 122 255 143 248 7 -3 10 1 6
11 -3 9 -1 16 5 16 6 0 11 9 11 20 0 40 123 245 140 235 9 -6 -14 -70 -33 -93
-8 -10 -7 -12 3 -10 7 2 15 -3 17 -10 3 -8 -1 -10 -13 -5 -17 6 -17 5 -1 -17
12 -18 14 -27 5 -37 -8 -10 -7 -13 4 -13 8 0 21 11 28 25 15 28 27 23 32 -14
1 -14 9 -26 15 -29 17 -5 37 47 23 62 -6 9 -6 24 0 47 6 19 13 51 15 73 3 21
9 46 14 55 5 9 11 36 15 62 4 25 15 73 25 107 11 34 16 62 13 62 -3 0 -15 -9
-26 -19 -25 -23 -96 -54 -96 -41 0 4 -10 6 -22 2 -12 -3 -19 -1 -15 4 3 6 -8
19 -24 29 -16 11 -31 26 -34 34 -4 11 -3 11 9 2 18 -15 40 -5 32 14 -2 7 6 17
20 24 13 6 24 15 24 21 0 6 5 8 10 5 6 -3 16 -3 23 2 6 4 17 8 22 9 6 0 16 2
23 2 7 1 10 7 6 14 -5 8 -2 9 9 5 10 -3 17 -3 17 2 0 4 12 14 28 21 22 11 24
14 10 17 -10 3 -18 10 -18 17 0 9 -13 12 -37 11 -21 -2 -48 4 -61 13 -15 10
-46 15 -90 15 -81 -1 -115 17 -105 55 4 17 2 23 -6 18 -6 -4 -11 -20 -11 -36
0 -39 -16 -46 -40 -18 -11 13 -19 17 -20 11 0 -7 -4 -13 -10 -13 -5 0 -10 18
-10 39 0 22 -5 43 -10 46 -6 4 -8 11 -4 16 3 6 0 10 -7 8 -27 -3 -37 1 -70 31
-37 32 -45 35 -54 20 -10 -16 -28 -11 -21 6 3 8 2 12 -4 9 -5 -3 -14 4 -20 15
-6 11 -15 20 -21 20 -6 0 -6 -7 1 -19z m190 -111 c8 -5 12 -11 10 -14 -3 -2
-14 2 -24 10 -22 15 -10 19 14 4z m-146 -313 c-14 -64 -32 5 -25 98 l2 40 15
-55 c8 -30 12 -67 8 -83z m246 -62 c-7 -9 -15 -13 -18 -11 -2 3 -12 -4 -22
-16 -10 -12 -19 -17 -23 -11 -8 12 31 56 43 48 5 -3 12 0 15 6 4 5 9 8 12 5 3
-3 0 -12 -7 -21z m139 -9 c-23 -23 -114 -76 -154 -90 -77 -26 -93 -29 -60 -11
16 9 37 22 45 29 8 8 25 19 37 25 19 10 22 9 16 -5 -4 -11 12 -5 48 19 45 30
84 48 68 33z"/>
<path d="M2740 8671 c0 -5 7 -12 16 -15 14 -5 15 -4 4 9 -14 17 -20 19 -20 6z"/>
<path d="M1960 8660 c0 -5 5 -10 10 -10 6 0 10 5 10 10 0 6 -4 10 -10 10 -5 0
-10 -4 -10 -10z"/>
<path d="M1769 8616 c-2 -2 -18 -6 -35 -9 -17 -3 -42 -10 -55 -17 -12 -7 -34
-16 -48 -21 -47 -15 60 2 139 22 41 10 58 17 37 14 -22 -2 -35 0 -32 6 6 9 2
13 -6 5z"/>
<path d="M3146 8595 c-9 -14 -13 -25 -8 -25 5 0 14 11 20 25 6 14 10 25 8 25
-2 0 -11 -11 -20 -25z"/>
<path d="M2652 8580 c-7 -11 -8 -20 -2 -20 5 0 14 9 20 20 6 11 7 20 3 20 -5
0 -14 -9 -21 -20z"/>
<path d="M2732 8548 c6 -17 36 -34 45 -24 4 4 -1 14 -11 22 -24 17 -39 18 -34
2z"/>
<path d="M3151 8531 c-32 -30 -42 -54 -18 -45 17 6 61 64 54 70 -2 3 -18 -9
-36 -25z"/>
<path d="M3030 8510 c-9 -6 -10 -10 -3 -10 6 0 15 5 18 10 8 12 4 12 -15 0z"/>
<path d="M1425 8500 c-13 -6 -15 -9 -5 -9 8 0 22 4 30 9 18 12 2 12 -25 0z"/>
<path d="M1151 8404 c-1 -6 9 -35 22 -63 l23 -53 24 21 c14 11 20 20 15 21 -6
0 -16 -5 -23 -12 -19 -19 -15 22 4 44 16 16 15 18 -2 25 -10 4 -19 2 -22 -5
-6 -19 -22 -14 -32 11 -5 12 -9 17 -9 11z"/>
<path d="M2285 8228 c-11 -6 -57 -45 -103 -86 -93 -84 -94 -98 -12 -104 54 -3
69 12 42 44 -13 16 -11 16 23 7 21 -6 47 -8 58 -5 35 9 75 -20 83 -59 8 -43
23 -47 18 -4 -4 30 -3 31 31 27 19 -2 35 -3 35 -1 0 1 -16 10 -35 19 -43 20
-96 94 -98 136 -2 36 -13 42 -42 26z"/>
<path d="M1045 8180 c-16 -16 -34 -30 -42 -30 -11 0 -33 -29 -33 -45 0 -11 90
67 101 87 14 26 7 23 -26 -12z"/>
<path d="M920 8090 l0 -44 22 22 22 22 -22 22 -22 22 0 -44z"/>
<path d="M884 8052 c-5 -24 -13 -43 -18 -42 -5 1 -14 -9 -21 -22 -6 -13 -17
-22 -24 -20 -7 1 -10 -1 -7 -6 3 -5 -7 -19 -22 -32 -15 -12 -37 -32 -49 -43
-18 -16 -25 -18 -37 -8 -13 11 -14 7 -9 -26 3 -21 7 -39 7 -40 1 -1 19 19 40
45 22 26 65 70 97 97 66 57 72 69 60 110 l-8 30 -9 -43z"/>
<path d="M2958 8053 c0 -10 0 -26 0 -36 1 -10 -2 -37 -7 -60 -9 -38 -8 -40 5
-22 51 70 99 97 92 53 -2 -17 4 -23 37 -33 25 -7 34 -13 25 -17 -10 -3 -4 -8
16 -12 17 -4 41 -16 52 -26 27 -25 41 -6 16 21 -10 11 -52 40 -93 66 -42 25
-87 54 -100 64 -30 24 -41 24 -43 2z"/>
<path d="M2430 8020 c0 -5 9 -10 20 -10 11 0 20 5 20 10 0 6 -9 10 -20 10 -11
0 -20 -4 -20 -10z"/>
<path d="M2387 7930 c3 -25 10 -49 14 -55 10 -10 1 47 -12 80 -5 12 -6 2 -2
-25z"/>
<path d="M480 7931 c8 -6 44 -20 79 -31 36 -11 72 -26 80 -32 9 -7 7 -3 -4 9
-17 17 -44 27 -155 60 -13 4 -13 4 0 -6z"/>
<path d="M3050 7918 c0 -12 3 -18 7 -14 11 10 12 36 2 36 -5 0 -9 -10 -9 -22z"/>
<path d="M627 7919 c7 -7 15 -10 18 -7 3 3 -2 9 -12 12 -14 6 -15 5 -6 -5z"/>
<path d="M2770 7911 c0 -6 5 -13 10 -16 6 -3 10 1 10 9 0 9 -4 16 -10 16 -5 0
-10 -4 -10 -9z"/>
<path d="M3076 7905 c-3 -9 0 -15 8 -15 8 0 16 7 20 15 3 9 0 15 -8 15 -8 0
-16 -7 -20 -15z"/>
<path d="M2727 7861 c-24 -42 -21 -50 8 -19 25 27 32 48 17 48 -4 0 -15 -13
-25 -29z"/>
<path d="M2403 7815 c0 -27 2 -38 4 -22 2 15 2 37 0 50 -2 12 -4 0 -4 -28z"/>
<path d="M2448 7829 c-19 -10 -25 -59 -8 -59 5 0 7 7 3 15 -3 9 3 25 12 35 20
22 18 24 -7 9z"/>
<path d="M626 7815 c10 -8 26 -14 34 -14 9 0 4 6 -10 14 -33 19 -49 19 -24 0z"/>
<path d="M685 7760 c3 -5 8 -10 11 -10 2 0 4 5 4 10 0 6 -5 10 -11 10 -5 0 -7
-4 -4 -10z"/>
<path d="M2762 7639 c-19 -17 -32 -32 -30 -35 3 -2 20 12 38 31 42 43 37 45
-8 4z"/>
<path d="M355 7621 c-27 -16 -59 -39 -70 -52 -23 -26 -15 -22 74 38 73 49 71
57 -4 14z"/>
<path d="M1492 7570 c5 -15 18 -30 29 -33 20 -5 20 -4 4 20 -10 15 -12 22 -4
18 7 -5 10 -4 6 2 -4 6 -15 13 -26 16 -17 4 -18 2 -9 -23z"/>
<path d="M2659 7554 c-19 -21 -25 -32 -14 -25 26 14 65 47 65 55 0 14 -19 3
-51 -30z"/>
<path d="M2630 7490 c0 -5 5 -10 10 -10 6 0 10 5 10 10 0 6 -4 10 -10 10 -5 0
-10 -4 -10 -10z"/>
<path d="M1711 7433 c-1 -7 -8 -13 -16 -13 -10 0 -12 -6 -8 -17 6 -16 5 -16
-11 -3 -16 13 -18 12 -15 -5 2 -11 0 -26 -4 -32 -5 -7 -5 -13 -1 -13 15 0 -30
-40 -45 -40 -14 -1 -14 -2 1 -11 10 -5 64 -12 120 -15 92 -4 111 -9 173 -39
39 -19 93 -57 123 -86 29 -28 55 -49 59 -46 3 4 23 -7 43 -23 21 -17 46 -30
56 -30 17 1 17 2 4 13 -8 7 -16 19 -18 27 -5 20 -22 40 -34 40 -6 0 -8 -7 -4
-15 9 -24 -18 -17 -50 12 -43 40 -146 118 -179 136 -17 9 -61 47 -98 86 -38
39 -73 69 -77 66 -5 -3 -11 1 -13 7 -4 10 -6 10 -6 1z"/>
<path d="M1025 7370 c3 -5 16 -10 28 -9 21 0 21 1 2 9 -28 12 -37 12 -30 0z"/>
<path d="M1165 7334 c11 -3 39 -9 62 -15 23 -6 47 -7 55 -3 18 11 -24 22 -87
22 -27 0 -41 -2 -30 -4z"/>
<path d="M1120 7273 c25 -27 46 -48 48 -47 11 7 -34 66 -61 80 -31 16 -31 16
13 -33z"/>
<path d="M982 7240 c0 -14 2 -19 5 -12 2 6 2 18 0 25 -3 6 -5 1 -5 -13z"/>
<path d="M1103 7159 c17 -39 33 -66 35 -61 3 11 -46 120 -58 127 -5 3 6 -27
23 -66z"/>
<path d="M1338 7173 c7 -3 16 -2 19 1 4 3 -2 6 -13 5 -11 0 -14 -3 -6 -6z"/>
<path d="M2296 7152 c-4 -8 -14 -36 -21 -63 -13 -47 -12 -50 8 -64 21 -15 22
-14 25 25 5 63 -1 117 -12 102z"/>
<path d="M1364 7130 c-21 -8 -39 -28 -33 -35 2 -2 18 8 34 21 32 26 32 28 -1
14z"/>
<path d="M1547 7075 c-40 -48 -45 -57 -23 -49 16 6 71 82 64 89 -2 2 -21 -15
-41 -40z"/>
<path d="M418 6995 c4 -98 21 -185 35 -185 3 0 -7 78 -31 240 -8 54 -9 45 -4
-55z"/>
<path d="M1698 7064 c-29 -15 -73 -82 -88 -133 -8 -28 -6 -31 13 -31 13 0 30
12 41 29 23 34 94 71 137 71 17 0 28 4 24 9 -6 10 -73 3 -90 -9 -22 -15 -45
-19 -45 -7 0 21 60 50 107 53 35 1 50 -3 69 -21 14 -13 23 -29 19 -34 -3 -6
-2 -11 3 -11 5 0 15 -12 22 -26 14 -26 47 -50 57 -41 10 10 -50 119 -77 139
-36 26 -151 34 -192 12z"/>
<path d="M4598 7038 c-12 -18 -51 -66 -86 -105 -34 -40 -59 -73 -55 -73 4 0
37 34 73 75 36 40 69 74 73 74 5 1 11 -8 14 -19 3 -11 10 -20 15 -20 6 0 7 7
4 16 -3 9 -6 22 -6 30 0 9 -4 12 -10 9 -7 -4 -7 3 0 19 13 35 6 33 -22 -6z"/>
<path d="M4677 7023 c-4 -3 -7 -11 -7 -17 0 -6 5 -5 12 2 6 6 9 14 7 17 -3 3
-9 2 -12 -2z"/>
<path d="M327 6963 c7 -205 14 -307 21 -317 5 -6 9 -23 10 -38 1 -23 48 -150
98 -266 8 -18 14 -41 14 -52 0 -10 4 -29 10 -42 5 -13 17 -49 25 -80 10 -35
22 -58 30 -58 9 0 12 -6 8 -17 -4 -11 -3 -14 5 -9 8 4 10 2 6 -7 -3 -8 1 -21
9 -29 8 -8 18 -25 22 -38 11 -36 73 -102 114 -123 55 -27 80 -43 106 -65 13
-11 27 -17 31 -14 4 4 4 2 0 -5 -4 -8 -32 2 -89 34 -45 25 -90 53 -100 61 -24
21 -26 14 -12 -40 6 -27 8 -48 4 -48 -5 0 -4 -10 2 -22 7 -18 4 -37 -16 -88
l-25 -65 22 -19 23 -18 -27 16 c-15 9 -34 16 -41 16 -21 0 -67 50 -68 74 0 20
-1 20 -8 1 -8 -19 -8 -19 -19 0 -6 11 -12 16 -12 12 0 -4 -12 4 -27 18 -33 29
-59 34 -48 8 18 -43 18 -56 3 -51 -12 5 -15 -1 -14 -32 0 -21 4 -36 7 -34 10
6 20 -26 12 -39 -4 -6 0 -8 10 -4 11 4 17 1 17 -9 0 -8 4 -12 10 -9 5 3 -9
-22 -31 -56 -49 -73 -75 -130 -85 -184 -3 -22 -11 -48 -16 -57 -5 -10 -5 -18
0 -18 9 0 32 66 32 94 0 25 56 46 85 32 12 -6 20 -16 18 -23 -3 -8 3 -13 15
-13 11 0 22 -7 26 -15 3 -8 12 -15 21 -15 8 0 15 -7 15 -15 0 -8 4 -15 10 -15
5 0 30 -16 56 -35 25 -19 57 -38 70 -41 24 -6 24 -7 9 -30 -8 -13 -13 -24 -9
-24 4 0 1 -7 -6 -15 -9 -11 -9 -15 -1 -15 7 0 9 -5 6 -10 -4 -6 -10 -8 -15 -5
-8 5 -36 -23 -29 -30 9 -9 67 28 79 51 15 26 30 32 30 11 0 -31 63 -61 84 -40
3 4 26 8 49 8 23 1 49 5 57 8 10 5 25 -7 45 -34 16 -22 31 -35 33 -29 2 6 -4
21 -14 32 -11 12 -14 19 -9 16 12 -7 36 17 27 27 -4 4 12 5 34 1 48 -7 106 2
98 15 -3 5 -13 9 -23 9 -10 0 -24 7 -31 15 -11 13 -10 15 1 11 8 -2 27 -7 43
-11 27 -6 28 -5 15 11 -13 16 -11 17 26 10 22 -4 42 -12 45 -16 8 -12 106 36
114 55 7 19 -73 121 -121 155 l-32 22 -34 -21 c-19 -12 -37 -29 -39 -39 -5
-16 -14 -18 -69 -16 -35 2 -69 3 -75 4 -6 0 -18 15 -26 34 l-17 34 42 -5 c23
-3 60 -11 82 -18 41 -13 50 -11 95 24 21 17 23 22 12 46 -7 14 -17 23 -22 20
-6 -3 -10 0 -10 7 0 8 -9 31 -19 51 -20 39 -30 166 -18 217 4 14 8 57 10 96 2
39 7 76 11 83 4 6 5 15 1 20 -8 14 -174 91 -210 98 -72 14 -147 87 -249 241
-59 88 -96 175 -96 221 0 16 -7 48 -15 71 -8 23 -15 51 -15 61 0 15 -32 87
-148 332 l-27 57 2 -57z m593 -1049 c0 -2 -9 0 -20 6 -11 6 -20 13 -20 16 0 2
9 0 20 -6 11 -6 20 -13 20 -16z m-31 -150 c14 -12 -19 -1 -35 12 -18 14 -18
14 6 3 14 -6 27 -13 29 -15z m-319 -215 c13 -7 13 -8 0 -9 -8 0 21 -24 64 -53
69 -45 81 -58 97 -99 9 -27 15 -48 13 -48 -3 0 -19 7 -35 16 -39 20 -59 12
-59 -22 0 -26 -1 -26 -19 -10 -11 10 -17 24 -15 31 3 7 -4 30 -15 50 -11 21
-18 42 -15 46 3 5 -2 6 -10 3 -11 -4 -19 3 -26 22 l-11 27 -27 -25 c-15 -13
-38 -30 -52 -36 -14 -7 -32 -16 -40 -20 -37 -22 -60 -32 -60 -27 0 2 16 34 36
69 l35 65 23 -26 c32 -37 56 -26 56 27 0 38 2 41 23 34 12 -3 29 -10 37 -15z
m-74 -35 c-4 -12 -10 -14 -17 -7 -5 5 -7 17 -3 27 4 12 10 14 17 7 5 -5 7 -17
3 -27z m-6 -148 c0 -3 -4 -8 -10 -11 -5 -3 -10 -1 -10 4 0 6 5 11 10 11 6 0
10 -2 10 -4z m778 -145 c-14 -23 -55 -47 -64 -39 -4 5 63 58 73 58 2 0 -2 -9
-9 -19z m-398 -82 c0 -5 -4 -9 -10 -9 -5 0 -10 7 -10 16 0 8 5 12 10 9 6 -3
10 -10 10 -16z m-76 -5 c4 -9 4 -19 2 -21 -8 -8 -26 8 -26 23 0 19 16 18 24
-2z m181 -4 c3 -5 1 -10 -4 -10 -6 0 -11 5 -11 10 0 6 2 10 4 10 3 0 8 -4 11
-10z"/>
<path d="M400 5445 c-7 -9 -11 -18 -8 -20 3 -3 11 1 18 10 7 9 11 18 8 20 -3
3 -11 -1 -18 -10z"/>
<path d="M4650 6980 c0 -5 7 -10 16 -10 8 0 12 5 9 10 -3 6 -10 10 -16 10 -5
0 -9 -4 -9 -10z"/>
<path d="M3448 6949 c-10 -5 -19 -20 -19 -32 -1 -17 -2 -18 -6 -4 -2 9 -9 17
-15 17 -6 0 -8 -11 -4 -26 5 -20 2 -32 -14 -46 -20 -19 -22 -19 -34 -3 -11 15
-13 13 -11 -19 1 -41 -9 -56 -19 -29 -6 15 -8 15 -16 3 -14 -22 -12 -30 8 -30
26 0 67 25 65 38 -2 7 3 11 10 10 6 -2 24 20 38 49 15 29 29 50 31 48 2 -2 4
5 4 15 0 11 0 20 -1 20 0 0 -8 -5 -17 -11z"/>
<path d="M1745 6930 c-8 -13 15 -13 35 0 12 8 11 10 -7 10 -12 0 -25 -4 -28
-10z"/>
<path d="M481 6924 c-1 -14 36 -156 60 -231 20 -62 45 -88 33 -35 -9 44 -54
184 -68 217 -8 17 -16 37 -19 45 -3 8 -6 10 -6 4z"/>
<path d="M690 6925 c0 -2 5 -16 11 -32 7 -15 12 -79 12 -141 0 -165 -21 -166
-49 -2 -9 52 -14 50 -14 -5 0 -27 6 -67 14 -90 8 -22 17 -53 21 -68 3 -15 10
-25 15 -22 5 3 7 0 4 -8 -3 -8 9 -30 25 -48 17 -18 31 -39 31 -46 0 -7 10 -18
23 -24 12 -7 24 -15 27 -20 6 -9 124 -76 163 -92 15 -6 27 -15 27 -20 0 -5 8
-3 18 4 9 8 0 -7 -21 -34 -42 -51 -45 -82 -9 -81 15 0 22 -5 22 -18 0 -20 -5
-22 -23 -8 -65 53 -116 88 -123 82 -4 -4 -4 -2 -1 4 5 9 -33 52 -40 46 -2 -1
-3 1 -4 5 -2 20 21 8 68 -36 l52 -48 21 30 c24 32 24 32 -32 62 -36 20 -48 19
-20 -1 12 -8 22 -20 22 -25 0 -6 -15 0 -32 13 -18 13 -43 29 -57 36 -27 14
-53 16 -31 2 12 -7 12 -12 2 -22 -10 -10 -15 -10 -22 2 -5 8 -10 10 -10 5 0
-6 7 -21 16 -34 16 -22 16 -23 -4 -12 -12 6 -24 16 -27 21 -3 6 -12 10 -18 10
-7 0 -2 -8 9 -18 12 -9 27 -27 33 -40 12 -22 11 -22 -11 -10 -13 7 -42 28 -65
46 -24 18 -43 30 -43 25 1 -15 57 -73 102 -105 51 -37 113 -93 143 -129 l20
-24 -25 20 c-14 10 -41 33 -60 50 -32 29 -113 88 -150 110 -13 8 -13 6 -1 -11
8 -10 38 -43 65 -73 47 -49 48 -57 5 -27 -8 6 2 -5 23 -25 21 -20 55 -41 75
-47 21 -5 79 -28 130 -50 l91 -40 16 42 c8 22 16 59 17 81 1 22 8 52 16 67 19
39 17 43 -27 63 -22 10 -45 24 -51 32 -19 22 7 16 51 -12 22 -14 44 -25 49
-25 5 0 6 -21 3 -46 -3 -34 -2 -45 7 -40 6 4 11 14 11 21 0 18 31 97 36 92 7
-7 -27 -107 -49 -145 -12 -21 -23 -56 -23 -80 -2 -48 -7 -50 75 23 l35 30 -32
-38 c-18 -21 -32 -42 -32 -48 0 -6 -5 -7 -10 -4 -6 3 -13 -2 -17 -12 -4 -10
-12 -23 -18 -30 -13 -12 -30 -142 -20 -151 3 -3 5 9 5 26 0 18 4 32 9 32 4 0
9 -28 9 -61 1 -34 3 -64 6 -67 4 -3 6 7 6 21 0 15 5 27 10 27 6 0 10 -26 10
-57 0 -78 53 -303 74 -318 9 -7 23 -33 32 -57 8 -25 27 -56 41 -69 23 -22 25
-22 15 -3 -7 13 -8 34 -2 57 4 21 4 39 -1 43 -5 3 -9 11 -9 17 1 16 39 61 46
55 3 -3 -2 -13 -11 -21 -8 -9 -15 -23 -15 -33 0 -16 2 -15 21 2 l22 19 -17
-32 c-23 -45 -20 -65 4 -25 25 40 36 42 15 2 -22 -43 -19 -54 20 -72 32 -14
35 -14 36 1 1 9 6 -2 12 -24 7 -22 16 -46 20 -53 12 -18 27 -5 27 26 0 15 5
34 11 42 9 12 10 11 6 -7 -8 -35 14 -103 37 -118 11 -7 47 -23 79 -34 l59 -20
-17 26 -18 26 34 -23 c29 -20 31 -21 17 -4 -27 31 -21 40 8 13 18 -16 28 -20
31 -12 3 9 16 4 41 -15 31 -23 35 -24 28 -7 -10 24 -32 134 -31 155 0 8 -2 17
-6 20 -12 8 -15 36 -4 35 6 0 10 -6 10 -14 0 -8 5 -16 11 -18 6 -2 9 -16 7
-31 -4 -21 -2 -24 6 -12 9 13 11 12 11 -3 0 -51 35 -133 71 -171 38 -38 56
-41 22 -4 -17 19 -16 19 7 14 14 -3 58 -7 98 -10 48 -2 79 -9 90 -20 14 -12
21 -13 30 -4 17 17 15 28 -4 28 -13 0 -14 3 -4 14 9 12 4 17 -32 26 -100 25
-103 28 -19 22 62 -4 82 -2 77 6 -4 7 -22 12 -41 12 -19 0 -37 5 -40 10 -4 6
12 10 40 10 44 0 45 1 39 28 -3 15 -7 33 -10 40 -2 6 4 12 14 13 10 0 12 3 5
6 -7 2 -13 11 -13 19 0 8 -4 14 -10 14 -5 0 -10 5 -10 11 0 6 6 9 14 6 8 -3
27 -2 43 2 27 8 28 7 31 -36 2 -33 -1 -44 -10 -41 -7 3 -13 11 -14 19 -2 34
-5 39 -21 39 -15 0 -15 -1 0 -18 13 -14 14 -21 5 -30 -9 -9 -9 -12 1 -12 7 0
10 -4 7 -9 -4 -5 4 -7 15 -4 16 5 20 2 17 -8 -3 -8 -11 -13 -17 -11 -15 3 -14
-15 1 -20 8 -3 5 -19 -11 -54 -54 -118 -98 -187 -114 -177 -7 4 -35 22 -64 40
-57 36 -75 41 -67 18 9 -23 -10 -18 -36 10 -13 14 -29 25 -35 25 -17 0 -49
-150 -35 -164 6 -6 10 -63 10 -135 0 -84 4 -121 10 -111 8 13 11 13 25 -1 15
-15 15 -17 0 -32 -14 -15 -45 -77 -45 -93 0 -3 7 -3 16 0 15 6 16 0 10 -46 -7
-48 -6 -51 8 -33 14 20 15 19 25 -9 31 -79 20 -286 -15 -286 -8 0 -14 10 -14
24 0 31 -16 42 -28 20 -7 -13 -11 -11 -20 13 -7 15 -11 42 -9 58 1 18 -3 29
-9 28 -7 -1 -9 8 -6 24 4 19 1 24 -9 21 -9 -3 -14 -18 -13 -39 1 -31 -2 -34
-29 -35 -16 -1 -32 -7 -37 -13 -9 -16 -1 -61 12 -61 6 0 8 -7 4 -15 -4 -11 2
-15 20 -15 21 0 25 -4 21 -20 -3 -11 -1 -20 5 -20 5 0 2 -7 -6 -15 -9 -9 -21
-35 -27 -58 -29 -112 -106 -263 -124 -245 -3 3 1 13 10 21 19 20 19 27 0 27
-8 0 -15 9 -15 19 0 11 -4 22 -10 26 -5 3 -7 12 -3 21 4 12 -1 11 -27 -3 -25
-14 -34 -15 -37 -5 -3 6 -9 12 -15 12 -6 0 -7 -7 -4 -16 3 -8 2 -12 -4 -9 -5
3 -17 -6 -26 -21 -13 -19 -24 -24 -41 -21 -13 2 -23 1 -23 -4 0 -11 35 -29 57
-29 10 0 25 -5 33 -10 13 -9 13 -12 -2 -24 -13 -9 -16 -22 -12 -48 7 -42 4
-48 -60 -121 -26 -31 -54 -64 -61 -73 -11 -16 -12 -15 -12 9 0 15 6 32 14 39
8 6 21 27 29 46 26 64 17 67 -49 16 -25 -20 -49 -45 -53 -56 -3 -11 -20 -33
-37 -48 -39 -34 -30 -50 11 -21 l30 21 6 -26 c4 -14 1 -40 -5 -58 -12 -32 -12
-33 -30 -15 -18 18 -65 27 -57 12 2 -5 9 -19 16 -33 12 -24 9 -29 -72 -111
-54 -54 -87 -81 -90 -73 -3 7 -1 16 5 20 6 3 14 16 19 27 5 12 21 38 36 57 16
21 8 15 -21 -15 -25 -27 -58 -69 -72 -92 -14 -24 -29 -43 -34 -43 -6 0 -15
-13 -20 -30 -10 -28 -31 -41 -74 -45 -15 -2 -19 -8 -17 -26 1 -13 7 -25 12
-27 27 -9 5 -22 -37 -22 -27 0 -43 -4 -38 -8 6 -4 10 -14 10 -22 0 -8 14 -19
30 -24 17 -6 31 -11 33 -11 1 -1 -5 -16 -14 -33 -8 -18 -13 -36 -9 -42 7 -12
-27 -48 -42 -43 -19 7 -27 -19 -10 -32 25 -18 9 -26 -37 -19 -39 6 -40 5 -21
-10 l20 -15 -20 -1 c-19 -1 -19 -1 -2 -11 9 -6 26 -8 36 -4 11 3 23 0 27 -6 5
-8 3 -9 -6 -4 -9 5 -11 4 -6 -3 11 -19 26 -14 26 9 0 11 4 18 9 15 5 -3 7 -16
4 -29 -6 -28 44 68 87 169 19 45 52 99 75 124 23 25 68 76 101 115 170 200
238 270 258 266 12 -1 23 -5 25 -6 8 -8 -125 -159 -155 -177 -18 -10 -35 -27
-39 -36 -15 -39 -51 -82 -70 -82 -25 0 -67 -28 -60 -40 3 -5 -7 -18 -21 -29
-26 -20 -54 -63 -54 -82 0 -5 11 -9 25 -9 14 0 25 -4 25 -9 0 -6 -22 -54 -50
-107 -52 -103 -61 -140 -14 -57 61 107 86 141 145 193 97 86 125 118 196 224
40 61 68 94 72 87 10 -15 56 1 64 22 3 9 16 17 29 19 19 2 23 8 21 33 -2 23 0
27 8 15 7 -11 9 -6 7 20 -1 19 -6 40 -10 46 -7 9 14 60 38 93 2 2 11 -4 20
-13 9 -10 23 -15 31 -12 9 4 11 2 7 -6 -5 -8 3 -9 29 -5 36 6 37 5 37 -24 0
-42 18 -36 65 19 l19 23 -28 -7 c-21 -5 -27 -4 -22 5 4 6 14 11 23 11 9 0 13
6 9 15 -3 10 -1 15 7 13 7 -2 25 7 41 20 16 12 24 22 19 22 -5 0 -14 -5 -21
-12 -21 -21 -27 2 -9 34 9 16 14 34 11 40 -3 5 4 12 16 15 15 4 20 11 17 24
-4 16 -2 17 15 8 14 -8 23 -8 31 0 22 22 30 11 23 -31 -4 -24 -9 -63 -11 -88
-3 -25 -11 -81 -19 -125 -8 -46 -10 -81 -5 -83 5 -2 9 -10 9 -18 0 -8 4 -14 9
-14 12 0 31 56 31 94 1 54 17 7 24 -69 15 -147 47 -317 101 -525 56 -219 60
-225 31 -40 -9 58 -23 148 -31 200 -32 203 -44 390 -26 390 5 0 19 -15 30 -32
19 -31 35 -51 97 -120 13 -15 24 -33 24 -39 0 -5 5 -7 12 -3 8 5 9 2 5 -9 -3
-9 -2 -19 4 -23 6 -3 8 -12 5 -19 -3 -9 5 -13 27 -12 34 2 83 -31 60 -40 -7
-3 -13 -10 -13 -16 0 -8 3 -8 11 0 9 9 19 8 40 -3 16 -8 29 -16 29 -18 0 -3 3
-13 7 -23 6 -16 5 -16 -10 -4 -15 12 -17 11 -17 -5 0 -16 -2 -16 -9 -4 -6 8
-8 17 -6 20 2 4 -1 7 -8 7 -7 0 -19 3 -27 5 -8 3 -13 3 -10 1 3 -2 5 -19 4
-38 -1 -19 2 -32 7 -29 5 3 9 -9 9 -25 0 -17 4 -31 8 -31 5 0 9 -6 9 -12 2
-28 29 -84 51 -104 23 -22 30 -40 11 -28 -6 3 1 -12 15 -35 21 -33 23 -39 8
-35 -13 4 -11 1 6 -14 23 -21 30 -38 11 -26 -8 5 -8 1 0 -13 7 -14 7 -23 -1
-31 -8 -8 -7 -13 6 -18 10 -4 13 -9 7 -13 -5 -4 -11 -18 -13 -33 -2 -15 -7
-30 -11 -34 -3 -4 0 -19 8 -35 8 -15 15 -37 15 -49 0 -11 4 -20 10 -20 5 0 7
-7 4 -15 -4 -8 -2 -15 3 -15 5 0 10 -12 10 -27 1 -32 6 -60 23 -123 14 -51 14
-51 25 -105 4 -22 14 -49 22 -61 7 -11 11 -23 8 -26 -3 -3 0 -18 6 -34 7 -16
11 -35 10 -43 -1 -7 2 -11 6 -8 5 3 9 -5 9 -18 0 -22 -2 -23 -16 -10 -18 16
-30 10 -29 -14 0 -12 2 -11 8 3 7 19 8 19 13 -1 4 -17 1 -20 -23 -19 -15 1
-31 5 -35 9 -12 11 -24 8 -20 -5 1 -7 1 -10 -1 -5 -3 4 -11 7 -19 7 -8 0 -14
5 -14 10 0 6 -5 10 -11 10 -5 0 -7 -5 -3 -12 4 -7 3 -8 -4 -4 -6 4 -8 14 -5
23 6 15 5 15 -17 0 -19 -13 -27 -14 -38 -4 -20 16 -44 15 -60 -3 -8 -9 -11
-10 -7 -2 6 11 -1 13 -26 10 l-34 -3 -26 155 c-28 162 -59 257 -74 223 -14
-30 -19 -403 -6 -403 6 0 11 -16 11 -35 0 -26 4 -33 14 -29 8 3 28 -1 43 -10
15 -8 49 -18 76 -21 49 -6 61 -19 27 -28 -11 -3 -20 -10 -20 -15 0 -17 32 -23
48 -10 12 10 14 10 8 1 -5 -9 -2 -11 9 -7 9 4 24 -3 38 -18 12 -13 65 -48 117
-76 52 -29 106 -61 120 -72 l25 -19 -44 6 c-29 4 -64 20 -99 45 -31 21 -59 38
-63 38 -16 0 -210 98 -247 125 l-37 27 31 -29 c17 -15 44 -38 60 -49 l29 -22
-23 -31 c-17 -23 -19 -31 -8 -31 8 0 17 -6 19 -12 3 -8 6 -6 6 5 1 19 49 24
79 7 42 -25 207 -80 254 -86 29 -3 67 -10 85 -15 24 -8 39 -7 60 5 15 8 23 15
17 16 -20 0 -41 311 -23 339 7 12 9 1 7 -36 -2 -28 -1 -49 2 -46 3 3 10 -24
16 -59 9 -48 12 -55 13 -28 1 19 4 46 7 60 4 20 3 22 -5 10 -9 -12 -11 -9 -12
15 -2 57 3 80 22 93 19 13 24 37 13 66 -5 14 -9 14 -22 4 -13 -11 -13 -9 1 12
14 22 16 62 12 345 -2 176 -7 374 -12 440 -8 96 -7 127 4 154 8 18 16 52 18
75 2 22 11 70 20 106 53 223 63 296 45 329 -10 20 -13 20 -40 6 -18 -9 -31
-11 -35 -5 -3 6 -15 10 -26 10 -10 0 -27 9 -36 19 -9 11 -20 18 -25 15 -4 -3
-5 2 -2 10 8 20 -33 21 -58 2 -16 -12 -16 -14 8 -35 26 -23 28 -41 4 -49 -9
-3 -10 0 -4 9 6 11 5 12 -7 3 -29 -23 -107 -25 -93 -3 3 5 9 7 14 4 5 -3 13
10 19 28 7 19 23 45 36 57 14 13 34 40 46 59 l20 36 -35 -40 c-19 -22 -35 -44
-36 -49 0 -4 -7 -6 -15 -2 -19 7 -58 -30 -49 -46 5 -8 2 -9 -9 -5 -10 4 -17 2
-17 -4 0 -6 -9 -9 -20 -6 -11 3 -20 1 -20 -3 0 -5 -12 -6 -27 -4 -101 15 -305
8 -253 -9 133 -44 206 -74 239 -99 23 -16 39 -34 36 -38 -3 -5 2 -10 12 -12
21 -4 25 -48 5 -70 -14 -16 -13 -18 3 -18 13 0 15 -3 7 -13 -16 -18 -10 -93 6
-89 10 2 10 -2 2 -18 -6 -11 -8 -25 -5 -30 3 -6 0 -10 -7 -10 -9 0 -9 -3 2
-10 11 -7 11 -10 2 -10 -7 0 -10 -5 -7 -10 5 -8 12 -7 23 2 15 11 15 11 0 -7
-12 -15 -14 -24 -7 -35 9 -13 10 -12 5 2 -3 12 -1 15 9 11 11 -4 12 -10 4 -24
-5 -10 -13 -19 -18 -19 -4 0 -14 -11 -21 -25 -15 -27 -30 -31 -47 -14 -9 9 -8
19 3 42 12 22 13 32 4 41 -8 8 -9 6 -4 -8 6 -15 4 -17 -6 -11 -10 6 -12 4 -6
-11 5 -14 4 -16 -4 -8 -16 16 6 58 26 50 9 -3 12 -1 9 4 -3 6 -12 10 -20 10
-10 0 -13 9 -10 30 3 25 -2 35 -27 53 -16 12 -31 20 -33 17 -2 -3 -11 4 -20
15 -9 11 -13 13 -9 5 4 -8 -6 -2 -22 14 -16 15 -30 32 -30 37 -1 5 -2 14 -3
19 0 6 -7 10 -15 10 -8 0 -16 10 -20 23 -3 12 -18 36 -34 52 -36 38 -72 116
-72 155 0 16 -4 30 -10 30 -5 0 -10 5 -10 11 0 5 5 7 12 3 7 -4 8 -3 4 5 -4 6
-12 8 -18 5 -12 -7 -31 18 -20 26 4 3 12 19 18 35 6 18 16 29 25 27 8 -2 11
-1 7 3 -12 12 31 49 60 52 15 2 60 13 100 24 41 11 76 19 78 16 5 -5 -77 -87
-89 -87 -4 0 -5 -5 -2 -10 4 -6 -5 -10 -19 -10 -14 0 -26 -4 -26 -9 0 -13 17
-23 22 -14 7 16 68 42 68 30 0 -7 4 -6 10 3 5 8 14 16 20 16 5 1 14 2 18 3 5
0 19 11 32 24 14 12 26 21 27 20 2 -2 5 -2 8 -2 3 1 8 2 13 3 24 6 236 132
252 151 5 6 10 61 11 122 1 89 -3 124 -20 175 -11 34 -25 92 -31 128 -13 85
-13 316 0 341 7 13 21 19 44 19 44 0 75 33 58 60 -7 11 -12 22 -12 24 0 2 28
7 63 11 85 8 117 15 117 24 0 11 -124 51 -156 51 -14 0 -40 6 -57 14 -18 8
-40 16 -49 20 -10 3 -18 11 -18 18 0 17 97 58 136 58 36 0 57 20 48 44 -8 22
-47 20 -94 -4 -22 -11 -40 -16 -40 -10 0 5 4 10 8 10 5 0 32 18 61 39 29 22
59 37 67 34 16 -6 150 33 158 46 11 17 -166 20 -221 5 -29 -9 -55 -19 -58 -24
-3 -4 -14 -6 -24 -3 -11 3 -35 -2 -53 -11 l-32 -17 29 32 30 31 -54 -27 c-30
-15 -81 -48 -115 -74 -102 -80 -101 -79 -129 -18 -14 28 -39 88 -57 131 -18
44 -41 87 -52 98 -17 17 -17 18 20 18 l37 1 -34 17 c-42 21 -71 92 -49 120 11
13 11 14 -1 8 -9 -6 -12 -5 -9 4 2 8 9 15 15 17 14 5 29 -37 17 -46 -11 -7
-15 -41 -5 -41 3 0 13 4 21 10 9 6 17 5 21 -1 4 -7 12 -5 22 5 12 12 17 13 21
3 3 -6 3 13 1 43 -4 48 -4 51 5 23 12 -38 18 -40 36 -15 12 15 13 14 10 -13
-1 -16 1 -43 4 -60 5 -18 8 9 8 70 0 55 -5 120 -10 145 -6 25 -12 54 -13 66
-4 33 -31 78 -82 141 -26 32 -38 51 -27 43 34 -26 71 -69 103 -117 l31 -46 1
34 c1 28 2 30 7 11 8 -26 27 -26 26 1 0 9 3 17 8 17 5 0 7 -17 6 -37 -1 -21
-1 -58 0 -82 2 -36 4 -42 16 -32 20 17 30 85 16 110 -6 12 -7 21 -2 21 16 0
-4 87 -32 134 -25 43 -25 61 1 35 9 -9 10 -7 6 10 -10 39 6 22 29 -31 20 -47
23 -50 28 -28 3 14 0 57 -7 95 -23 128 -23 131 -14 116 13 -21 31 -3 27 27 -3
25 -12 50 -53 144 -9 21 -25 45 -35 55 -19 17 -20 17 -29 0 -6 -10 -14 -15
-18 -12 -5 2 -14 -2 -21 -10 -17 -20 -113 -64 -152 -70 -18 -3 -27 -3 -20 1 6
3 12 12 12 20 0 8 4 14 10 14 5 0 9 5 7 10 -1 6 12 17 29 24 31 14 31 14 20
-10 -6 -13 -16 -24 -23 -24 -6 0 -15 -5 -18 -11 -8 -13 56 14 112 47 43 25 83
68 83 89 0 7 -14 0 -31 -16 -18 -16 -46 -39 -63 -50 -20 -14 -16 -7 14 20 25
22 44 45 42 51 -1 6 5 13 13 16 8 4 15 10 15 16 0 5 -4 6 -10 3 -5 -3 -10 -1
-10 6 0 7 -6 5 -14 -6 -9 -13 -18 -16 -32 -10 -17 8 -17 9 6 13 23 4 23 5 5
12 -10 4 -35 3 -55 -1 -19 -4 -47 -10 -62 -14 -15 -3 -36 -15 -47 -27 -12 -12
-35 -22 -56 -23 -34 -3 -35 -2 -22 18 7 11 32 29 55 41 23 12 42 28 42 36 0
10 3 11 8 4 5 -8 28 -9 72 -5 l64 6 -27 18 c-17 11 -27 26 -27 42 0 13 -4 27
-10 30 -5 3 -10 19 -10 35 0 60 -90 172 -111 139 -5 -8 -9 -30 -10 -49 -3 -66
-7 -85 -31 -159 -26 -81 -34 -88 -120 -93 -38 -2 -49 -12 -25 -21 32 -13 -63
-5 -102 9 -25 8 -81 15 -130 16 -74 1 -80 2 -46 10 22 4 83 9 135 9 76 1 87 3
55 10 -22 4 -80 5 -130 2 -65 -3 -86 -2 -75 6 12 8 8 11 -20 13 -19 1 -48 1
-63 0 -16 -1 -36 2 -45 7 -14 8 -11 10 13 9 17 -1 48 0 70 1 36 3 37 4 15 11
-14 4 -47 9 -75 10 l-50 2 35 12 34 13 -29 10 c-17 6 -44 8 -61 6 -18 -3 -45
2 -62 11 -35 18 -42 19 -42 8 0 -5 17 -18 39 -30 21 -12 45 -30 52 -39 11 -13
7 -12 -16 4 -16 11 -41 24 -55 28 -25 8 -25 8 -6 -14 11 -11 23 -21 28 -21 14
0 52 -39 45 -47 -4 -3 -17 3 -30 14 -12 11 -50 35 -85 53 -50 26 -60 36 -51
46 6 8 27 14 45 14 31 0 34 3 34 30 0 26 -21 82 -36 99 -2 3 -16 -6 -30 -20
l-26 -24 6 40 7 40 -20 -49 c-11 -27 -18 -59 -15 -70 3 -12 -2 -30 -10 -41
-14 -18 -15 -16 -9 30 3 28 9 58 14 67 5 9 9 28 9 41 0 14 7 30 15 37 8 7 15
19 15 26 0 8 5 14 10 14 13 0 13 127 1 134 -5 4 -12 -13 -16 -36 -9 -54 -15
-64 -27 -47 -6 9 -8 -1 -4 -31 3 -25 1 -54 -3 -64 -7 -18 -9 -16 -22 12 -13
31 -37 47 -25 17 3 -8 9 -22 12 -30 4 -10 0 -15 -10 -15 -9 0 -16 5 -16 10 0
6 -5 10 -10 10 -6 0 -9 -5 -8 -11 4 -16 -45 -29 -110 -30 -43 -1 -56 -5 -71
-25 -10 -13 -24 -24 -30 -24 -22 0 -61 32 -82 67 -14 23 -24 31 -29 23 -10
-16 -50 -3 -73 24 l-18 21 10 -22 c8 -16 7 -22 -4 -27 -20 -7 -28 10 -21 42
l6 27 -15 -25 c-17 -29 -19 -19 -5 28 8 30 8 32 -7 20 -15 -12 -16 -10 -9 17
4 17 14 35 22 41 7 6 14 19 14 29 0 15 -2 15 -16 4 -35 -29 -57 -103 -33 -111
7 -2 5 -9 -5 -17 -14 -12 -16 -10 -15 20 0 19 4 61 8 94 10 80 -2 126 -40 147
-16 9 -29 15 -29 13z m40 -330 c-7 -9 -15 -13 -17 -11 -7 7 7 26 19 26 6 0 6
-6 -2 -15z m501 -308 l-23 -22 17 28 c10 15 20 25 23 22 3 -3 -5 -16 -17 -28z
m264 -5 c-6 -6 -35 18 -35 29 0 5 9 1 20 -8 11 -9 17 -19 15 -21z m195 -47
c58 0 93 -4 102 -13 6 -6 23 -12 37 -12 13 0 22 -3 18 -6 -8 -9 -77 -11 -77
-2 0 4 -13 -1 -30 -10 -16 -9 -30 -20 -30 -24 0 -5 33 -8 72 -8 85 0 230 -29
225 -44 -2 -6 -23 -14 -48 -18 -24 -3 -63 -11 -87 -17 -23 -6 -55 -9 -70 -6
-14 2 -45 2 -67 -2 -36 -6 -38 -7 -15 -14 23 -6 23 -7 3 -8 -12 -1 -30 -4 -40
-7 -15 -5 -15 -4 -3 5 16 11 16 11 -32 15 -7 1 -16 5 -20 10 -3 5 -24 5 -50
-2 -191 -47 -176 -41 -217 -96 -21 -28 -37 -52 -36 -54 1 -1 22 4 46 12 24 8
45 13 47 11 5 -5 -35 -27 -73 -41 -16 -6 -30 -18 -30 -27 0 -9 -5 -21 -12 -28
-8 -8 -12 -6 -17 7 -9 31 -2 50 36 95 49 61 164 171 194 187 13 7 24 19 24 27
0 8 7 15 15 15 14 0 13 3 -1 25 -19 29 -9 33 20 6 19 -16 26 -17 71 -5 l50 12
-50 -1 c-41 0 -56 5 -78 25 -15 14 -27 31 -27 39 0 7 13 0 31 -17 29 -28 35
-29 119 -29z m-650 23 c0 -6 -3 -8 -7 -5 -3 4 -12 2 -20 -4 -8 -8 -13 -8 -13
-1 0 10 15 19 33 21 4 1 7 -4 7 -11z m800 -18 c0 -5 -7 -7 -15 -4 -8 4 -15 8
-15 10 0 2 7 4 15 4 8 0 15 -4 15 -10z m520 -24 c0 -2 -7 -7 -16 -10 -8 -3
-12 -2 -9 4 6 10 25 14 25 6z m-52 -24 c-20 -24 2 -25 47 -2 25 13 48 20 52
17 3 -4 -11 -14 -33 -23 -21 -9 -59 -24 -83 -35 -48 -21 -108 -27 -81 -8 11 8
8 9 -15 5 -25 -5 -21 -1 24 28 53 33 111 45 89 18z m-1068 -16 c0 -2 -8 -10
-17 -17 -16 -13 -17 -12 -4 4 13 16 21 21 21 13z m265 -26 c4 -6 -7 -10 -27
-10 -25 0 -29 3 -18 10 19 13 37 13 45 0z m-305 -55 c-13 -14 -26 -23 -28 -20
-7 7 29 45 41 45 6 0 0 -11 -13 -25z m417 -51 c-3 -3 -12 -4 -19 -1 -8 3 -5 6
6 6 11 1 17 -2 13 -5z m16 -95 c-8 -8 -16 -8 -30 0 -16 9 -14 10 12 11 21 0
26 -3 18 -11z m683 -14 c10 -8 15 -14 9 -14 -5 0 -19 6 -29 14 -11 8 -15 15
-10 15 6 0 19 -7 30 -15z m-458 -17 c-3 -7 -18 -16 -34 -20 -17 -4 -39 -17
-49 -27 -16 -19 -20 -19 -46 -6 -15 8 -49 15 -75 15 -26 0 -44 3 -41 7 4 4 29
6 56 4 29 -1 67 6 97 18 56 23 98 27 92 9z m556 -49 c31 -28 56 -57 56 -64 0
-19 -17 -28 -26 -14 -4 8 -3 9 4 5 7 -4 12 -3 12 2 0 6 -27 35 -61 66 -33 31
-56 56 -50 56 5 0 35 -23 65 -51z m-594 1 c8 -5 11 -10 5 -10 -5 0 -17 5 -25
10 -8 5 -10 10 -5 10 6 0 17 -5 25 -10z m-389 -18 c-13 -9 -34 -27 -47 -39
-13 -12 -24 -19 -24 -16 0 4 -13 -6 -30 -22 -16 -16 -40 -29 -54 -30 -21 0
-23 2 -15 29 5 16 14 34 19 40 8 8 8 3 1 -16 -6 -16 -8 -28 -6 -28 3 0 24 12
46 28 63 42 113 70 124 71 6 0 -1 -8 -14 -17z m299 0 c0 -10 -46 -10 -56 1 -4
4 7 7 24 7 18 0 32 -4 32 -8z m-85 -7 c-24 -8 -114 -11 -109 -3 3 4 31 8 62 7
31 0 53 -2 47 -4z m-125 -15 c0 -5 -12 -10 -27 -9 l-28 1 25 8 c14 4 26 8 28
9 1 1 2 -3 2 -9z m240 -10 c-20 -13 -33 -13 -25 0 3 6 14 10 23 10 15 0 15 -2
2 -10z m-448 -103 c-17 -22 -32 -83 -38 -153 -3 -38 -8 -71 -10 -73 -9 -9 -3
115 7 173 9 50 16 62 31 63 14 1 17 -2 10 -10z m1168 -87 c9 -16 8 -18 -5 -14
-8 4 -15 12 -15 20 0 20 7 17 20 -6z m-1025 -43 c-16 -12 -49 -39 -73 -60 -24
-20 -47 -35 -52 -32 -9 5 -21 -24 -25 -61 -2 -15 12 -6 56 39 33 33 63 57 66
53 8 -8 -48 -67 -58 -61 -7 5 -49 -62 -63 -99 -4 -13 -2 -17 7 -13 9 3 13 -5
13 -29 0 -19 -1 -34 -2 -34 -7 0 -34 66 -39 94 -5 35 25 132 40 129 6 -1 42
23 80 52 38 30 72 52 75 49 3 -3 -8 -15 -25 -27z m135 -71 c0 -2 -19 -16 -42
-32 -24 -15 -60 -41 -80 -56 -27 -21 -38 -25 -44 -16 -4 7 -4 10 1 6 4 -4 26
8 49 26 35 29 106 76 114 76 1 0 2 -2 2 -4z m64 -101 c-8 -13 -13 -29 -10 -34
4 -5 2 -12 -4 -16 -17 -10 -11 37 7 57 23 25 26 22 7 -7z m273 -107 c-2 -13
-4 -3 -4 22 0 25 2 35 4 23 2 -13 2 -33 0 -45z m278 32 c13 -25 13 -30 1 -30
-14 0 -26 21 -26 46 0 22 8 17 25 -16z m-247 -5 c-3 -3 -9 2 -12 12 -6 14 -5
15 5 6 7 -7 10 -15 7 -18z m-328 12 c0 -2 -11 -18 -25 -37 -29 -39 -33 -32 -8
11 14 24 33 39 33 26z m91 -39 c-3 -21 -6 -26 -9 -15 -3 17 3 47 11 47 2 0 1
-15 -2 -32z m-50 -1 c-10 -9 -11 -8 -5 6 3 10 9 15 12 12 3 -3 0 -11 -7 -18z
m-184 -9 c-3 -8 -6 -5 -6 6 -1 11 2 17 5 13 3 -3 4 -12 1 -19z m473 -19 c0
-13 -4 -18 -12 -13 -8 5 -9 0 -6 -14 4 -12 2 -20 -3 -16 -13 8 -11 32 4 49 16
19 17 18 17 -6z m-240 -13 c0 -3 -4 -8 -10 -11 -5 -3 -10 -1 -10 4 0 6 5 11
10 11 6 0 10 -2 10 -4z m-34 -71 c3 -25 4 -49 0 -52 -8 -8 -26 43 -26 73 0 41
18 26 26 -21z m364 -884 c0 -20 -9 -79 -21 -131 -46 -202 -46 -202 -42 10 3
107 7 201 9 209 8 25 54 -49 54 -88z m-95 -211 c-3 -5 -13 -10 -21 -10 -8 0
-12 5 -9 10 3 6 13 10 21 10 8 0 12 -4 9 -10z m-97 -163 c-5 -18 -15 -43 -21
-55 -6 -13 -12 -31 -12 -40 -4 -50 -5 -54 -20 -48 -10 3 -19 -3 -26 -17 -6
-13 -24 -28 -40 -34 -16 -6 -29 -10 -29 -9 0 8 114 243 123 254 19 24 37 -13
25 -51z m62 -137 c-6 -4 -10 -20 -8 -35 4 -39 -34 -62 -76 -46 l-28 11 28 26
c26 25 26 26 5 19 -13 -4 -21 -3 -19 1 2 5 10 23 17 41 11 27 19 32 49 35 32
3 37 0 40 -21 2 -13 -2 -27 -8 -31z m-355 16 c-12 -18 -26 -26 -47 -26 -19 0
-28 4 -25 13 2 6 12 11 22 9 9 -2 26 6 37 18 26 28 34 19 13 -14z m845 -10 c0
-2 -7 -7 -16 -10 -8 -3 -12 -2 -9 4 6 10 25 14 25 6z m-780 -81 c0 -8 -4 -17
-10 -20 -6 -4 -10 5 -10 20 0 15 4 24 10 20 6 -3 10 -12 10 -20z m-42 -76
c-24 -42 -45 -62 -53 -49 -4 7 7 26 26 46 36 37 48 39 27 3z m112 -23 c0 -2
-9 -6 -20 -9 -11 -3 -18 -1 -14 4 5 9 34 13 34 5z m-172 -40 c27 -9 28 -17 5
-43 -22 -24 -57 -27 -47 -4 4 9 7 29 7 44 0 16 3 24 6 19 3 -5 16 -12 29 -16z
m172 -30 c0 -40 -2 -44 -27 -49 -16 -3 -29 -4 -31 -2 -3 3 51 95 55 95 2 0 3
-20 3 -44z m-68 -8 c-7 -7 -12 -8 -12 -2 0 14 12 26 19 19 2 -3 -1 -11 -7 -17z
m-142 -52 c0 -3 -4 -8 -10 -11 -5 -3 -10 -1 -10 4 0 6 5 11 10 11 6 0 10 -2
10 -4z m-583 -522 c-3 -3 -12 -4 -19 -1 -8 3 -5 6 6 6 11 1 17 -2 13 -5z
m1260 -991 c-4 -3 2 -13 14 -21 25 -17 20 -35 -9 -37 -12 -1 -20 1 -17 3 3 3
-1 12 -8 20 -9 13 -9 14 1 8 6 -4 12 -2 12 3 0 6 -6 11 -12 11 -9 0 -8 4 2 10
17 11 26 13 17 3z m219 -209 c13 -3 24 -11 24 -17 0 -6 3 -7 7 -4 9 10 33 -13
33 -31 0 -17 -15 -7 -15 11 0 7 -8 11 -17 9 -9 -1 -34 10 -55 24 -21 15 -30
24 -20 20 11 -3 30 -9 43 -12z"/>
<path d="M1540 6130 c-45 -25 -86 -57 -80 -63 3 -3 37 9 75 25 39 16 78 32 87
35 10 3 15 9 12 14 -9 15 -57 9 -94 -11z"/>
<path d="M1840 6140 c0 -13 11 -13 30 0 12 8 11 10 -7 10 -13 0 -23 -4 -23
-10z"/>
<path d="M1667 6128 c-15 -11 -9 -12 33 -10 27 2 50 8 50 13 0 13 -64 11 -83
-3z"/>
<path d="M1828 5913 c7 -3 16 -2 19 1 4 3 -2 6 -13 5 -11 0 -14 -3 -6 -6z"/>
<path d="M3380 6884 c0 -8 5 -12 10 -9 6 4 8 11 5 16 -9 14 -15 11 -15 -7z"/>
<path d="M4600 6880 c-21 -6 -22 -8 -7 -14 38 -14 43 -13 44 5 2 21 1 21 -37
9z"/>
<path d="M4516 6845 c-3 -9 -2 -14 3 -11 5 3 12 -1 15 -10 5 -13 9 -14 21 -4
8 7 15 20 15 29 0 13 -2 14 -9 2 -8 -12 -13 -12 -24 -3 -12 10 -16 9 -21 -3z"/>
<path d="M565 6830 c2 -14 7 -42 10 -62 8 -50 25 -49 22 2 -1 22 -5 40 -8 40
-3 0 -11 10 -17 23 -11 22 -11 22 -7 -3z"/>
<path d="M4595 6840 c-11 -4 -29 -17 -39 -29 -20 -22 -20 -22 1 -27 13 -4 20
-11 16 -20 -7 -19 11 -18 27 1 7 8 24 15 38 15 20 0 23 -3 14 -12 -24 -24 -11
-26 15 -2 14 13 23 27 19 31 -4 4 -11 1 -16 -7 -7 -11 -10 -12 -10 -2 0 7 -4
10 -10 7 -6 -3 -7 1 -4 9 3 9 9 14 12 13 7 -2 12 7 12 21 0 9 -51 11 -75 2z"/>
<path d="M1723 6823 c-28 -19 -29 -34 -3 -51 15 -9 18 -19 13 -42 -4 -23 0
-36 16 -54 12 -13 19 -30 16 -38 -4 -9 -2 -19 4 -23 6 -3 11 -1 11 4 0 6 6 10
13 9 9 -2 12 17 12 72 0 41 3 80 7 86 9 13 -7 29 -42 42 -18 7 -31 5 -47 -5z"/>
<path d="M878 6817 c-11 -9 -13 -18 -7 -30 5 -9 8 -32 6 -52 -2 -19 0 -35 5
-35 5 0 14 -12 20 -27 l12 -28 4 31 c1 16 -2 43 -9 60 -7 16 -13 32 -13 36 -1
3 -4 10 -9 14 -4 4 0 16 10 26 18 20 6 24 -19 5z"/>
<path d="M1010 6811 c0 -5 11 -12 25 -15 13 -3 47 -29 74 -56 28 -28 58 -50
68 -50 10 0 14 4 8 8 -6 4 -16 19 -24 34 -9 18 -37 39 -76 58 -66 32 -75 35
-75 21z"/>
<path d="M3357 6773 c-4 -3 -7 -11 -7 -17 0 -6 5 -5 12 2 6 6 9 14 7 17 -3 3
-9 2 -12 -2z"/>
<path d="M3326 6761 c-4 -7 -5 -15 -2 -18 9 -9 19 4 14 18 -4 11 -6 11 -12 0z"/>
<path d="M3300 6724 c0 -10 -5 -14 -16 -10 -8 3 -12 2 -9 -3 3 -5 -7 -11 -22
-13 -24 -3 -27 -7 -28 -38 0 -26 -4 -35 -17 -34 -10 1 -14 -4 -11 -11 2 -8 -5
-18 -16 -25 -12 -6 -21 -16 -21 -23 0 -6 38 26 84 72 77 77 93 101 65 101 -5
0 -9 -7 -9 -16z"/>
<path d="M1036 6706 c3 -8 13 -17 22 -21 13 -5 13 -2 -3 15 -21 24 -26 25 -19
6z"/>
<path d="M4750 6716 c0 -2 7 -6 15 -10 8 -3 15 -1 15 4 0 6 -7 10 -15 10 -8 0
-15 -2 -15 -4z"/>
<path d="M1507 6623 c-14 -13 -7 -23 16 -22 19 1 19 2 3 6 -15 4 -16 7 -5 14
8 5 9 9 3 9 -6 0 -14 -3 -17 -7z"/>
<path d="M1653 6621 c-74 -6 -109 -24 -94 -49 23 -37 139 -24 124 15 -5 12 -2
15 8 11 9 -3 26 3 40 13 15 11 18 18 9 17 -8 -1 -47 -4 -87 -7z"/>
<path d="M1910 6621 c0 -5 10 -13 23 -17 12 -4 28 -15 34 -24 17 -24 116 -23
121 1 6 34 -25 49 -104 49 -41 0 -74 -4 -74 -9z m100 -11 c0 -5 -5 -10 -11
-10 -5 0 -7 5 -4 10 3 6 8 10 11 10 2 0 4 -4 4 -10z m44 -21 c-8 -14 -24 -10
-24 6 0 9 6 12 15 9 8 -4 12 -10 9 -15z"/>
<path d="M570 6609 c0 -5 5 -7 10 -4 6 3 10 8 10 11 0 2 -4 4 -10 4 -5 0 -10
-5 -10 -11z"/>
<path d="M2650 6603 c1 -11 60 -76 65 -71 9 8 -33 73 -49 76 -9 2 -16 0 -16
-5z"/>
<path d="M4790 6590 c0 -5 5 -10 10 -10 6 0 10 5 10 10 0 6 -4 10 -10 10 -5 0
-10 -4 -10 -10z"/>
<path d="M5335 6530 c-3 -5 0 -10 9 -10 8 0 31 -19 50 -42 20 -23 36 -38 36
-34 0 17 -32 66 -52 80 -26 19 -35 20 -43 6z"/>
<path d="M1645 6500 c-33 -12 -55 -15 -67 -9 -33 18 -43 8 -15 -16 22 -19 34
-23 60 -18 40 7 79 27 96 47 11 14 11 16 -5 15 -11 0 -41 -9 -69 -19z"/>
<path d="M1970 6509 c0 -14 46 -29 83 -28 31 1 31 1 7 9 -73 24 -90 28 -90 19z"/>
<path d="M5235 6489 c9 -14 -25 -50 -39 -42 -7 4 -7 1 1 -7 9 -10 17 -7 36 16
24 28 26 44 6 44 -6 0 -7 -5 -4 -11z"/>
<path d="M3060 6456 c0 -2 15 -9 33 -15 29 -10 30 -9 13 4 -18 14 -46 20 -46
11z"/>
<path d="M5175 6400 c-3 -5 -1 -10 4 -10 6 0 11 5 11 10 0 6 -2 10 -4 10 -3 0
-8 -4 -11 -10z"/>
<path d="M720 6396 c0 -2 7 -9 15 -16 9 -7 15 -8 15 -2 0 5 -7 12 -15 16 -8 3
-15 4 -15 2z"/>
<path d="M4520 6390 c0 -5 7 -7 15 -4 8 4 15 8 15 10 0 2 -7 4 -15 4 -8 0 -15
-4 -15 -10z"/>
<path d="M756 6362 c-3 -5 1 -9 9 -9 8 0 15 4 15 9 0 4 -4 8 -9 8 -6 0 -12 -4
-15 -8z"/>
<path d="M3615 6360 c3 -5 11 -10 16 -10 6 0 7 5 4 10 -3 6 -11 10 -16 10 -6
0 -7 -4 -4 -10z"/>
<path d="M4945 6350 c-3 -5 -1 -10 4 -10 6 0 11 5 11 10 0 6 -2 10 -4 10 -3 0
-8 -4 -11 -10z"/>
<path d="M5080 6350 c-9 -6 -10 -10 -3 -10 6 0 15 5 18 10 8 12 4 12 -15 0z"/>
<path d="M2080 6346 c0 -9 40 -13 46 -5 3 5 -6 9 -20 9 -14 0 -26 -2 -26 -4z"/>
<path d="M5307 6310 c-26 -23 -45 -45 -43 -47 2 -3 21 0 41 6 33 9 39 7 60
-15 12 -13 31 -24 42 -24 10 0 24 -5 31 -12 9 -9 16 -7 31 9 l20 21 -40 0
c-51 1 -119 40 -97 56 9 7 12 18 8 30 -6 18 -11 15 -53 -24z"/>
<path d="M5025 6322 c-16 -11 -36 -26 -44 -35 -12 -15 -16 -15 -45 -1 -28 14
-29 13 -12 -1 11 -8 24 -15 29 -15 4 0 5 -4 2 -10 -13 -21 13 -9 38 18 14 15
36 35 49 44 31 23 20 23 -17 0z"/>
<path d="M2060 6300 c-20 -7 -16 -8 23 -9 26 -1 47 4 47 9 0 12 -34 12 -70 0z"/>
<path d="M2747 6195 c-10 -66 -20 -132 -21 -146 -4 -33 -15 -51 -27 -43 -15 9
-38 -15 -65 -68 -29 -57 -29 -58 -5 -58 25 0 157 125 141 135 -6 4 -9 14 -5
22 4 12 2 13 -8 5 -10 -9 -10 7 0 91 21 157 12 208 -10 62z"/>
<path d="M5101 6261 c-6 -11 -34 -31 -61 -44 l-50 -24 6 22 c3 13 2 25 -3 28
-5 3 -9 -4 -9 -16 1 -17 -5 -22 -21 -21 -33 1 -28 -15 18 -63 35 -38 45 -43
83 -43 l43 0 -3 -35 c-3 -40 5 -44 32 -14 13 14 25 18 44 14 l25 -6 -25 21
c-21 17 -23 21 -10 30 13 8 13 10 -1 10 -9 0 -30 12 -48 28 l-31 27 16 48 c17
50 14 74 -5 38z"/>
<path d="M3581 6203 c17 -38 39 -87 50 -111 10 -23 19 -62 19 -86 0 -41 34
-106 48 -92 3 3 10 2 16 -3 18 -13 76 -22 76 -10 0 6 8 6 21 -2 20 -10 19 -8
-6 33 -34 55 -99 190 -119 248 l-15 45 4 -80 c3 -44 7 -102 10 -130 4 -50 4
-50 -5 -10 -16 66 -41 124 -82 197 -22 37 -41 68 -43 68 -2 0 10 -30 26 -67z
m135 -170 c8 -32 18 -67 21 -78 l5 -20 -15 20 c-17 24 -44 135 -32 135 2 0 12
-26 21 -57z"/>
<path d="M4720 6195 c0 -15 -4 -24 -8 -21 -5 3 -9 -1 -9 -8 0 -7 17 -21 37
-32 l37 -21 -15 29 c-7 16 -11 35 -8 43 3 9 -3 19 -14 25 -18 9 -20 7 -20 -15z"/>
<path d="M2480 6200 c0 -5 5 -10 11 -10 5 0 7 5 4 10 -3 6 -8 10 -11 10 -2 0
-4 -4 -4 -10z"/>
<path d="M3161 6168 c-1 -31 -6 -48 -13 -49 -7 -1 -17 -2 -23 -4 -5 -1 -17 -3
-25 -3 -10 -2 -8 -7 8 -18 14 -10 21 -22 17 -31 -3 -9 2 -21 12 -29 15 -11 15
-14 3 -14 -10 -1 -9 -4 4 -9 25 -10 36 -72 21 -118 -9 -29 8 -30 35 -3 22 22
22 27 -6 195 -20 116 -32 147 -33 83z m-1 -68 c0 -5 -8 -10 -17 -10 -15 0 -16
2 -3 10 19 12 20 12 20 0z m-10 -40 c0 -5 -5 -10 -11 -10 -5 0 -7 5 -4 10 3 6
8 10 11 10 2 0 4 -4 4 -10z"/>
<path d="M4623 6172 c1 -33 4 -38 23 -38 13 0 21 3 18 7 -2 4 -1 15 2 24 5 13
8 14 15 3 5 -8 9 -9 9 -2 0 12 -43 44 -58 44 -6 0 -9 -17 -9 -38z"/>
<path d="M3430 6185 c0 -2 10 -28 21 -57 32 -80 40 -120 26 -137 -10 -12 -9
-14 6 -8 10 4 16 3 13 -2 -8 -13 47 -60 82 -70 44 -13 40 3 -8 30 -22 13 -40
27 -40 33 0 6 5 5 12 -2 22 -22 30 -12 12 15 -9 15 -30 50 -44 78 -51 96 -80
139 -80 120z"/>
<path d="M5310 6181 c-8 -5 -38 -19 -67 -32 -48 -22 -67 -39 -44 -39 5 0 17
-7 26 -16 20 -21 33 -10 14 12 -12 14 -10 19 10 35 13 11 31 19 41 19 25 0 50
10 50 21 0 11 -10 11 -30 0z"/>
<path d="M4311 6138 c-1 -16 -5 -28 -11 -28 -5 0 -7 -7 -4 -15 4 -8 1 -15 -5
-15 -6 0 -11 7 -11 15 0 8 -4 15 -10 15 -5 0 -10 -5 -10 -11 0 -6 -7 -9 -15
-5 -19 7 -19 3 5 -41 10 -20 17 -40 14 -45 -3 -4 1 -8 9 -8 8 0 17 6 20 14 7
17 29 15 51 -3 21 -17 20 -7 -1 27 l-17 27 25 -22 c31 -28 50 -29 66 -4 8 13
19 18 33 14 11 -3 20 -1 20 4 0 6 12 8 26 5 l26 -5 -22 42 c-22 45 -45 60 -62
43 -6 -6 -17 -8 -26 -5 -8 4 -20 -1 -27 -11 -10 -13 -15 -14 -21 -5 -5 9 -9 7
-14 -7 -7 -16 -10 -14 -23 16 -15 34 -15 35 -16 8z"/>
<path d="M2987 6118 c2 -18 5 -50 6 -70 1 -41 6 -45 26 -25 10 10 11 8 5 -7
-5 -13 -4 -17 4 -12 11 7 11 25 -1 56 -3 8 -11 32 -17 53 -14 46 -29 49 -23 5z"/>
<path d="M2565 6130 c-11 -5 -14 -9 -7 -9 8 -1 10 -6 5 -13 -4 -7 -8 -23 -9
-35 -1 -17 5 -23 20 -23 21 1 21 1 2 15 -19 14 -19 15 -1 15 10 0 15 3 12 7
-4 3 2 13 13 20 35 25 9 42 -35 23z"/>
<path d="M4500 6136 c0 -18 32 -66 56 -85 30 -23 89 -28 97 -8 3 9 -4 12 -29
9 -36 -4 -94 28 -94 52 0 8 -7 19 -15 26 -8 7 -15 9 -15 6z"/>
<path d="M3291 6121 c-9 -6 -3 -16 18 -34 17 -14 31 -30 31 -36 0 -6 5 -11 11
-11 5 0 8 4 5 9 -3 5 2 12 11 15 14 6 14 8 -3 24 -33 28 -60 41 -73 33z"/>
<path d="M3242 6088 c-1 -36 56 -166 82 -187 28 -23 29 -5 2 36 -26 37 -35 70
-17 59 5 -4 7 3 4 14 -3 11 -9 18 -13 15 -15 -9 -21 14 -10 34 8 16 6 25 -7
41 -25 29 -40 25 -41 -12z"/>
<path d="M4153 6110 c2 -8 7 -25 11 -37 8 -24 -9 -33 -17 -10 -2 6 -8 9 -12 5
-12 -11 15 -108 31 -108 8 0 14 7 14 16 0 14 3 14 15 4 13 -11 14 -10 9 4 -3
9 -2 16 4 16 6 0 12 -6 14 -12 3 -8 10 -4 17 11 10 17 10 26 1 35 -8 8 -10 6
-5 -9 4 -11 -2 -7 -13 10 -30 44 -74 92 -69 75z"/>
<path d="M471 6101 c-7 -5 -11 -15 -9 -22 3 -8 -8 -37 -24 -66 -18 -32 -28
-63 -26 -80 l3 -28 22 24 c28 30 43 20 17 -11 -16 -19 -16 -20 -1 -9 15 12 20
11 35 -3 10 -9 22 -13 25 -9 4 3 8 -2 9 -13 0 -10 2 -25 2 -31 1 -7 11 -20 23
-28 19 -13 22 -13 28 3 7 16 8 15 16 -3 l9 -20 -2 20 c-1 11 1 37 6 58 6 35 4
42 -27 76 -18 20 -44 63 -57 94 -25 60 -27 62 -49 48z"/>
<path d="M3393 6083 c-8 -23 -6 -30 11 -38 12 -6 21 -19 21 -29 0 -11 6 -21
13 -23 18 -7 15 32 -5 70 -9 18 -16 35 -15 40 1 4 -2 7 -7 7 -5 0 -13 -12 -18
-27z"/>
<path d="M3784 6058 c5 -47 43 -138 58 -138 12 0 10 18 -9 53 -9 18 -25 55
-35 82 l-19 50 5 -47z"/>
<path d="M4080 6062 c0 -20 -4 -31 -10 -27 -13 8 -13 -20 1 -68 9 -34 12 -37
27 -25 9 7 13 8 9 2 -4 -7 -1 -14 6 -17 22 -8 18 44 -8 108 -22 55 -25 57 -25
27z"/>
<path d="M5540 6080 c-13 -8 -12 -10 3 -10 9 0 17 5 17 10 0 12 -1 12 -20 0z"/>
<path d="M2816 6055 c-3 -8 -1 -17 3 -20 5 -3 11 2 15 10 3 8 1 17 -3 20 -5 3
-11 -2 -15 -10z"/>
<path d="M3855 6058 c3 -8 19 -25 35 -37 16 -12 37 -35 45 -51 25 -49 33 -34
16 31 -9 34 -17 54 -19 45 -4 -20 -18 -21 -26 0 -3 8 -11 12 -16 9 -6 -4 -18
-1 -26 6 -12 10 -13 9 -9 -3z"/>
<path d="M4000 6045 c0 -11 -5 -15 -15 -11 -20 7 -19 -9 3 -66 22 -59 24 -60
55 -53 28 7 29 35 3 64 -8 9 -18 28 -21 44 -8 31 -25 46 -25 22z"/>
<path d="M5265 6040 c-22 -11 -46 -19 -54 -20 -10 0 -6 -9 12 -28 26 -27 26
-29 9 -47 -16 -19 -16 -19 3 -3 13 10 31 15 50 11 l30 -5 -31 20 c-18 11 -35
26 -40 34 -6 9 -3 9 10 -2 16 -13 20 -12 33 5 13 17 15 17 10 3 -4 -10 -2 -18
3 -18 6 0 10 4 10 9 0 13 53 -2 57 -16 3 -7 -8 -19 -24 -27 -17 -9 -22 -15
-12 -16 18 0 49 30 49 48 0 6 -11 14 -25 18 -28 7 -59 37 -34 34 7 -1 23 -1
34 0 17 2 17 3 -5 10 -37 12 -41 11 -85 -10z"/>
<path d="M3590 6011 c0 -5 9 -30 20 -56 15 -35 28 -49 56 -61 20 -8 46 -13 58
-11 20 4 20 4 -2 6 -13 0 -20 5 -17 11 4 6 2 9 -3 8 -17 -5 -72 42 -72 61 0
30 -11 51 -26 51 -8 0 -14 -4 -14 -9z"/>
<path d="M3840 6006 c0 -3 12 -25 27 -50 22 -36 37 -48 72 -60 l45 -15 -34 33
c-61 57 -110 98 -110 92z"/>
<path d="M5170 6000 c-9 -6 -10 -10 -3 -10 6 0 15 5 18 10 8 12 4 12 -15 0z"/>
<path d="M2595 5991 c2 -4 0 -13 -6 -21 -7 -12 -9 -11 -9 5 0 12 -3 15 -9 10
-6 -6 -5 -30 3 -63 l12 -53 32 61 c17 34 32 62 32 63 0 1 -13 2 -30 3 -16 1
-28 -2 -25 -5z"/>
<path d="M2851 5984 c0 -11 3 -14 6 -6 3 7 2 16 -1 19 -3 4 -6 -2 -5 -13z"/>
<path d="M5435 5990 c-13 -5 -14 -9 -5 -9 8 0 24 4 35 9 13 5 14 9 5 9 -8 0
-24 -4 -35 -9z"/>
<path d="M3223 5966 c4 -10 7 -21 7 -25 0 -4 7 -8 14 -8 11 0 12 5 5 18 -13
25 -34 37 -26 15z"/>
<path d="M2840 5948 c0 -7 5 -20 10 -28 8 -12 10 -9 10 13 0 15 -4 27 -10 27
-5 0 -10 -6 -10 -12z"/>
<path d="M3206 5873 c-3 -4 -26 -8 -50 -8 -30 -1 -61 -13 -102 -37 -72 -44
-227 -110 -354 -152 l-94 -31 -18 -63 c-10 -34 -23 -62 -28 -62 -5 0 -12 -21
-16 -47 -4 -27 -10 -50 -13 -53 -4 -3 -11 -24 -17 -47 -8 -31 -8 -44 0 -47 7
-3 7 -7 -2 -14 -10 -7 -11 -14 -1 -34 10 -24 13 -25 38 -13 14 8 43 21 64 30
20 9 37 21 37 28 0 8 3 7 9 -2 7 -11 12 -10 26 7 10 11 25 18 33 15 8 -4 19 1
24 10 4 9 14 14 21 11 7 -2 24 4 37 16 13 11 18 20 13 20 -6 0 -16 -7 -23 -15
-18 -21 -29 -19 -23 5 3 11 9 18 13 15 9 -5 33 45 25 53 -3 3 -5 0 -5 -6 0 -6
-9 -16 -20 -22 -19 -10 -20 -10 -8 9 7 12 16 22 20 22 20 3 24 5 35 12 20 13
29 -30 10 -49 -12 -12 -8 -24 8 -24 9 0 18 6 21 14 3 8 15 16 26 19 12 4 17
10 13 17 -5 9 -1 10 16 5 19 -5 21 -4 9 4 -9 6 -10 11 -3 11 6 0 9 9 6 20 -3
11 -10 17 -15 14 -6 -4 -7 0 -1 12 5 11 7 33 3 49 -5 26 -10 30 -34 27 -17 -2
-25 1 -21 7 3 6 13 11 21 11 8 0 14 6 14 14 0 13 -4 13 -27 0 -40 -20 -52 -17
-23 6 18 14 20 20 10 20 -9 0 -21 -5 -28 -12 -7 -7 -12 -8 -12 -4 0 5 -7 3
-15 -4 -9 -7 -18 -10 -21 -7 -3 3 8 13 25 23 17 10 31 25 31 34 -1 12 -3 11
-15 -4 -7 -10 -18 -15 -23 -12 -6 3 -13 1 -15 -4 -3 -6 -4 -5 -3 2 4 19 69 48
131 58 106 17 167 40 203 76 19 19 37 34 41 34 8 0 68 49 60 50 -3 0 -9 -3
-13 -7z m-316 -318 c0 -8 -2 -15 -4 -15 -2 0 -6 7 -10 15 -3 8 -1 15 4 15 6 0
10 -7 10 -15z m10 -61 c0 -9 5 -12 12 -8 6 4 8 3 5 -3 -4 -6 -16 -13 -27 -16
-17 -4 -19 -3 -9 9 6 7 9 21 5 29 -3 9 -2 13 4 10 6 -3 10 -13 10 -21z m-30
-6 c0 -4 -4 -8 -9 -8 -6 0 -12 4 -15 8 -3 5 1 9 9 9 8 0 15 -4 15 -9z m-303
-170 c-3 -8 -6 -5 -6 6 -1 11 2 17 5 13 3 -3 4 -12 1 -19z m-22 -27 c3 -5 1
-12 -5 -16 -5 -3 -10 1 -10 9 0 18 6 21 15 7z"/>
<path d="M540 5781 c0 -5 5 -13 10 -16 6 -3 10 -2 10 4 0 5 -4 13 -10 16 -5 3
-10 2 -10 -4z"/>
<path d="M460 5761 c0 -25 6 -27 13 -6 4 8 2 17 -3 20 -6 4 -10 -3 -10 -14z"/>
<path d="M2976 5711 c-11 -4 -15 -10 -10 -13 5 -4 20 0 34 8 26 14 9 18 -24 5z"/>
<path d="M1111 5673 c-1 -12 4 -25 9 -28 12 -7 12 2 0 30 -8 19 -9 19 -9 -2z"/>
<path d="M2930 5650 c-9 -6 -10 -10 -3 -10 6 0 15 5 18 10 8 12 4 12 -15 0z"/>
<path d="M2996 5627 c3 -10 9 -15 12 -12 3 3 0 11 -7 18 -10 9 -11 8 -5 -6z"/>
<path d="M3070 5619 c0 -5 5 -7 10 -4 6 3 10 8 10 11 0 2 -4 4 -10 4 -5 0 -10
-5 -10 -11z"/>
<path d="M2948 5596 c-18 -24 -14 -66 6 -66 8 0 8 -2 -1 -8 -6 -4 -9 -19 -6
-34 4 -23 8 -26 24 -17 13 6 19 6 19 -1 0 -5 4 -10 9 -10 5 0 8 16 6 35 -2 19
1 38 6 41 5 3 9 -6 9 -20 0 -14 4 -28 10 -31 6 -4 7 1 3 11 -5 14 -2 16 15 12
21 -6 28 5 23 34 0 4 11 3 25 -2 15 -6 23 -6 19 -1 -3 5 7 11 22 13 16 2 27 8
25 16 -1 7 5 15 13 18 8 4 15 13 15 20 0 12 -4 12 -21 4 -11 -7 -32 -14 -46
-16 -14 -3 -32 -11 -40 -19 -18 -18 -33 -11 -33 16 0 20 -15 26 -24 10 -3 -5
-16 -11 -29 -13 -20 -4 -23 -1 -19 14 6 25 -10 22 -30 -6z m65 -22 c11 -11 -3
-24 -18 -18 -8 4 -12 10 -9 15 6 11 18 12 27 3z m24 -16 c-3 -8 -6 -5 -6 6 -1
11 2 17 5 13 3 -3 4 -12 1 -19z m-50 -25 c-4 -3 -2 -12 3 -18 7 -9 6 -14 -3
-18 -10 -4 -13 1 -12 16 3 26 3 27 12 27 3 0 3 -3 0 -7z"/>
<path d="M3634 5453 c-16 -27 -38 -72 -51 -101 -12 -30 -24 -56 -26 -59 -6 -5
-108 -28 -397 -88 -298 -62 -325 -72 -268 -96 23 -10 68 -13 151 -12 87 2 116
0 111 -9 -8 -12 -1 -9 54 28 18 13 58 26 88 30 48 6 61 12 95 47 21 23 39 35
39 27 0 -10 4 -9 18 3 10 10 22 14 25 10 4 -3 7 -1 7 6 0 7 4 10 9 6 5 -3 12
-1 16 5 4 6 11 8 16 4 5 -3 7 -9 4 -14 -3 -4 4 -6 15 -3 11 3 28 -1 37 -8 11
-9 14 -10 10 -2 -5 7 1 18 13 25 11 7 20 24 20 38 1 19 5 14 17 -20 8 -25 17
-47 18 -49 2 -2 2 38 0 88 -2 51 0 114 4 141 4 28 7 50 5 50 -1 0 -15 -21 -30
-47z"/>
<path d="M150 5456 c0 -8 5 -18 10 -21 6 -3 10 3 10 14 0 12 -4 21 -10 21 -5
0 -10 -6 -10 -14z"/>
<path d="M90 5232 c0 -17 5 -34 11 -37 7 -5 9 4 5 25 -6 43 -16 50 -16 12z"/>
<path d="M1346 5188 c-3 -13 -6 -33 -6 -45 0 -24 -19 -41 -29 -26 -35 52 -120
-29 -101 -97 7 -24 5 -31 -15 -44 -29 -19 -41 -52 -25 -70 6 -8 10 -18 9 -22
-1 -5 -1 -21 0 -37 1 -35 38 -52 78 -36 16 6 29 6 31 1 11 -35 28 -44 66 -34
31 9 36 9 26 -3 -6 -8 -17 -12 -25 -9 -20 8 -27 -13 -9 -30 21 -22 46 -20 80
6 16 12 31 23 33 24 1 2 -4 16 -12 33 -15 30 -15 30 7 16 20 -13 25 -12 55 15
20 19 29 35 24 42 -5 10 -8 8 -11 -4 -4 -20 -44 -34 -62 -23 -8 5 -6 13 6 26
23 25 10 36 -26 22 -17 -6 -30 -7 -30 -2 0 5 7 9 16 9 10 0 14 6 10 15 -3 8
-1 15 3 15 5 0 11 -4 13 -9 2 -5 21 -6 43 -2 28 5 40 12 39 23 -1 14 2 15 16
5 14 -8 25 -8 44 1 14 6 26 8 26 3 0 -5 -7 -11 -15 -15 -8 -3 -15 -14 -15 -25
0 -11 -14 -36 -31 -56 -40 -45 -28 -45 22 0 22 19 43 35 49 35 5 0 6 8 3 18
-6 15 -5 15 10 3 10 -8 21 -11 25 -7 4 4 -1 12 -10 17 -15 9 -15 14 8 64 14
31 23 61 21 68 -3 6 -12 -4 -21 -24 -14 -34 -19 -37 -70 -43 -44 -6 -62 -4
-86 10 -32 19 -37 29 -20 39 6 3 10 15 10 27 0 17 -4 19 -26 14 -31 -8 -64 1
-64 17 0 7 -4 18 -9 26 -8 12 -12 12 -26 -2 -9 -9 -13 -23 -9 -29 5 -10 4 -10
-6 -1 -11 10 -10 16 4 32 13 14 16 28 11 55 -8 41 -20 47 -29 14z m-26 -138
c0 -5 -2 -10 -4 -10 -3 0 -8 5 -11 10 -3 6 -1 10 4 10 6 0 11 -4 11 -10z
m-100 -152 c0 -5 -7 -8 -15 -8 -8 0 -15 2 -15 4 0 2 -3 12 -6 21 -6 15 -4 15
15 4 11 -8 21 -17 21 -21z m155 -18 c3 -6 -1 -7 -9 -4 -18 7 -21 14 -7 14 6 0
13 -4 16 -10z m38 -47 c-7 -2 -19 -2 -25 0 -7 3 -2 5 12 5 14 0 19 -2 13 -5z
m17 -38 c0 -8 -7 -15 -15 -15 -26 0 -18 20 13 29 1 1 2 -6 2 -14z"/>
<path d="M160 5171 c-15 -28 -13 -37 10 -37 23 0 25 7 8 24 -10 10 -10 15 2
22 9 6 10 10 3 10 -7 0 -17 -9 -23 -19z"/>
<path d="M3527 5171 c-23 -7 -55 -20 -72 -29 -16 -8 -47 -24 -67 -34 -46 -23
-48 -33 -6 -47 36 -13 74 -8 169 21 68 20 89 41 89 88 0 15 -7 18 -35 17 -19
-1 -54 -8 -78 -16z"/>
<path d="M343 5083 c3 -16 9 -36 12 -46 6 -14 3 -16 -11 -11 -11 4 -26 13 -34
20 -14 12 -16 9 -18 -16 -1 -17 2 -30 8 -30 5 0 10 -8 11 -17 0 -11 3 -13 6
-5 8 20 26 14 20 -8 -3 -11 0 -18 7 -17 14 3 8 -35 -7 -45 -17 -11 5 -42 32
-46 18 -3 21 2 21 35 l1 38 15 -27 c8 -16 19 -28 25 -28 6 0 6 7 -1 19 -5 11
-10 26 -10 33 0 7 7 0 15 -16 8 -15 12 -32 9 -37 -8 -14 16 -39 38 -39 49 0
26 79 -33 112 -21 12 -37 23 -35 26 4 3 38 -13 138 -64 30 -16 82 -19 73 -4
-3 5 -21 12 -40 16 -55 10 -61 29 -11 30 32 1 53 9 80 30 38 30 33 47 -6 20
-12 -9 -27 -16 -33 -16 -5 0 -3 4 5 10 8 5 12 12 8 15 -7 8 -88 -15 -88 -25 0
-13 -47 -28 -60 -20 -11 7 -10 11 3 25 34 34 14 79 -40 90 -30 6 -34 4 -44
-22 -12 -30 -15 -27 -33 30 -9 29 -29 20 -23 -10z m33 -100 c-11 -11 -19 6
-11 24 8 17 8 17 12 0 3 -10 2 -21 -1 -24z"/>
<path d="M1780 5031 c0 -5 7 -14 15 -21 11 -9 12 -17 5 -30 -6 -10 -10 -25
-10 -33 0 -8 -7 -32 -16 -52 -12 -30 -18 -35 -25 -24 -8 11 -14 9 -32 -12 -13
-14 -31 -28 -40 -32 -19 -7 -24 -47 -5 -47 13 0 2 -14 -13 -16 -5 -1 -13 -2
-19 -3 -5 0 -7 -8 -4 -16 4 -8 1 -15 -5 -15 -6 0 -13 11 -17 25 -3 14 -12 25
-18 25 -13 0 -63 -48 -55 -53 2 -1 12 -9 22 -16 11 -9 21 -10 30 -4 19 16 69
23 58 9 -6 -7 -8 -21 -5 -32 3 -13 -3 -32 -19 -50 -13 -16 -37 -49 -55 -74
-17 -25 -41 -56 -54 -70 -13 -14 -40 -48 -60 -75 -21 -28 -42 -56 -48 -63 -6
-7 -8 -16 -5 -22 3 -5 -11 -12 -32 -15 -81 -13 -108 -28 -111 -62 -2 -21 -10
-34 -22 -38 -22 -7 -60 -56 -60 -78 0 -16 20 -27 49 -27 13 0 16 -8 13 -40 -4
-37 -2 -40 20 -40 13 0 29 5 36 12 9 9 12 9 12 0 0 -6 -16 -27 -35 -47 -33
-32 -35 -40 -11 -36 5 1 5 -6 1 -16 -19 -46 -14 -54 10 -18 23 36 26 37 20 13
-3 -16 -3 -28 0 -28 13 0 43 88 38 112 -3 18 3 33 25 54 24 25 27 32 16 42
-18 17 -18 32 1 32 8 0 15 5 15 11 0 6 8 8 19 4 16 -5 19 -1 18 27 -1 22 2 32
11 31 6 -2 12 3 12 10 0 21 -17 40 -29 33 -14 -9 -14 3 -1 40 6 16 25 39 43
51 17 12 39 32 47 44 8 12 25 34 38 49 12 15 22 33 22 40 0 9 4 9 13 3 38 -31
96 -17 82 18 -16 44 63 252 93 242 7 -3 12 4 12 16 0 12 4 21 9 21 5 0 17 8
26 17 16 16 16 17 0 29 -16 12 -16 17 5 75 11 34 26 71 32 82 5 10 6 23 1 27
-13 12 -63 21 -63 11z m-443 -903 c-3 -8 -6 -5 -6 6 -1 11 2 17 5 13 3 -3 4
-12 1 -19z m-62 -58 c-7 -22 -25 -27 -25 -7 0 6 3 23 7 36 5 20 7 21 15 7 5
-9 6 -25 3 -36z"/>
<path d="M240 5010 c0 -5 5 -10 11 -10 5 0 7 5 4 10 -3 6 -8 10 -11 10 -2 0
-4 -4 -4 -10z"/>
<path d="M1751 4944 c-12 -27 -7 -45 8 -28 14 14 23 54 13 54 -5 0 -14 -12
-21 -26z"/>
<path d="M250 4927 c0 -24 -7 -46 -20 -60 -24 -25 -23 -72 0 -72 10 0 16 -12
18 -32 4 -40 22 -44 22 -5 l0 27 20 -29 c10 -17 30 -36 44 -43 27 -14 32 -8
16 17 -7 11 -10 11 -10 2 0 -19 -17 -6 -23 18 -5 19 -3 20 11 8 9 -7 3 3 -13
23 -17 20 -40 43 -52 50 -13 7 -23 17 -23 22 0 5 6 4 14 -2 18 -15 26 6 19 50
-8 54 -22 70 -23 26z"/>
<path d="M3065 4920 c-11 -5 -44 -9 -73 -9 -53 -1 -99 -22 -129 -59 -9 -11
-27 -15 -58 -13 -25 1 -45 -2 -45 -7 0 -5 18 -21 40 -36 38 -25 44 -26 81 -15
36 11 40 15 37 42 -3 30 -2 30 82 51 47 12 99 29 115 38 l30 17 -30 0 c-16 0
-39 -4 -50 -9z"/>
<path d="M519 4908 c8 -10 11 -28 7 -43 -8 -30 10 -34 19 -4 5 15 0 28 -16 43
-13 12 -17 13 -10 4z"/>
<path d="M164 4881 c3 -5 17 -8 31 -8 13 0 22 3 19 8 -3 5 -16 9 -30 9 -14 0
-23 -4 -20 -9z"/>
<path d="M420 4852 c0 -6 7 -17 15 -25 8 -8 14 -30 15 -49 0 -18 3 -51 8 -73
l8 -40 12 39 c10 34 8 46 -9 87 -21 47 -49 83 -49 61z"/>
<path d="M1150 4849 c0 -5 5 -7 10 -4 6 3 10 8 10 11 0 2 -4 4 -10 4 -5 0 -10
-5 -10 -11z"/>
<path d="M884 4826 c5 -21 2 -32 -11 -42 -17 -13 -17 -13 1 -14 18 0 18 -1 1
-20 -14 -16 -15 -20 -4 -20 8 0 21 6 28 13 11 10 12 -4 7 -78 -3 -49 -7 -98
-7 -107 0 -18 -3 -17 -57 11 -35 18 -56 -3 -48 -50 6 -35 5 -36 -22 -32 -26 4
-27 4 -7 -12 20 -17 19 -17 -7 -13 -28 5 -36 -6 -20 -27 10 -14 49 -35 65 -35
10 0 13 -8 10 -24 -3 -16 1 -25 13 -30 14 -5 15 -4 5 8 -8 10 -9 21 -3 32 8
15 9 15 15 -1 5 -11 13 -14 27 -10 32 10 43 -4 26 -31 -14 -20 -14 -23 -1 -18
8 3 17 15 20 25 6 19 7 18 27 -3 17 -20 19 -20 13 -4 -7 23 14 39 32 24 18
-15 16 -26 -4 -31 -10 -3 -4 -5 12 -6 34 -1 55 14 55 40 0 9 8 20 17 23 15 6
15 8 3 16 -8 5 -19 5 -25 1 -5 -4 -23 -5 -39 -2 -26 5 -28 7 -13 20 31 25 14
91 -24 91 -11 0 -22 8 -25 18 -3 9 -10 25 -15 36 -6 10 -7 36 -4 58 l7 40 32
-31 c18 -17 36 -31 41 -31 14 -1 65 -47 65 -60 0 -18 -17 -11 -23 9 -6 24 -47
48 -47 28 0 -19 71 -80 97 -83 12 -1 26 -5 31 -8 5 -3 16 1 23 10 10 13 10 17
-2 25 -9 6 -10 12 -4 17 6 4 18 22 28 39 14 26 15 32 4 27 -8 -3 -18 0 -22 6
-5 8 -11 7 -23 -2 -12 -10 -16 -10 -19 0 -6 17 -23 15 -23 -2 0 -25 -19 -28
-42 -7 -12 12 -28 21 -36 21 -33 0 -78 64 -95 135 -10 38 -22 74 -28 80 -9 7
-10 2 -5 -19z m46 -310 c0 -2 -7 -9 -15 -16 -13 -11 -14 -10 -9 4 5 14 24 23
24 12z m53 -43 c4 -23 -7 -31 -18 -13 -4 6 -10 8 -14 6 -3 -3 -7 3 -7 13 0 25
34 20 39 -6z"/>
<path d="M1259 4763 c-2 -30 -3 -32 -6 -10 -2 15 -7 27 -11 27 -14 0 -30 -52
-27 -86 4 -43 10 -50 28 -32 24 24 37 56 37 92 0 48 -20 57 -21 9z"/>
<path d="M3066 4780 c-30 -12 -60 -17 -79 -13 -21 4 -28 3 -23 -5 11 -18 79
-14 130 8 78 33 55 41 -28 10z"/>
<path d="M1113 4772 c-51 -24 -40 -35 26 -29 76 6 90 15 56 33 -32 17 -40 16
-82 -4z"/>
<path d="M825 4770 c-3 -5 -1 -10 4 -10 6 0 11 5 11 10 0 6 -2 10 -4 10 -3 0
-8 -4 -11 -10z"/>
<path d="M550 4763 c0 -15 38 -33 82 -38 l43 -5 -40 18 c-55 26 -85 35 -85 25z"/>
<path d="M267 4709 c7 -7 15 -10 18 -7 3 3 -2 9 -12 12 -14 6 -15 5 -6 -5z"/>
<path d="M3477 4598 c-17 -37 -37 -130 -62 -288 -10 -58 -25 -123 -35 -145 -9
-23 -20 -58 -24 -80 -4 -22 -14 -53 -22 -70 l-15 -30 25 28 c15 15 26 36 26
46 0 29 25 82 35 74 4 -5 5 5 1 20 -4 17 -3 26 3 23 13 -8 81 283 88 377 3 42
3 77 1 77 -3 0 -13 -15 -21 -32z"/>
<path d="M160 4586 c0 -9 5 -16 10 -16 6 0 10 4 10 9 0 6 -4 13 -10 16 -5 3
-10 -1 -10 -9z"/>
<path d="M2775 4570 c-16 -11 -38 -20 -48 -20 -20 0 -36 -35 -29 -62 10 -40
68 -14 127 58 l36 44 -28 0 c-15 0 -41 -9 -58 -20z"/>
<path d="M300 4563 c-19 -8 -52 -31 -72 -50 -31 -30 -36 -32 -31 -14 3 12 9
24 14 27 17 10 9 21 -13 20 -20 -1 -23 -6 -20 -36 1 -19 7 -36 12 -38 6 -2 10
-10 10 -18 0 -20 11 -18 46 9 17 12 28 29 26 39 -3 17 36 51 50 42 8 -5 24 24
17 30 -2 2 -20 -3 -39 -11z m-40 -46 c0 -2 -12 -14 -27 -28 l-28 -24 24 28
c23 25 31 32 31 24z"/>
<path d="M1416 4551 c-17 -19 -76 -34 -76 -20 0 5 -7 6 -15 3 -8 -4 -15 -10
-15 -15 0 -4 7 -6 15 -3 9 4 15 0 15 -9 0 -9 7 -13 23 -10 20 4 23 0 22 -23 0
-19 6 -30 18 -32 10 -2 17 3 17 12 0 9 8 16 19 16 20 0 37 32 26 50 -10 16
-25 12 -25 -7 0 -12 -3 -14 -11 -6 -8 8 -8 17 1 33 15 29 8 35 -14 11z"/>
<path d="M626 4544 c-5 -14 -4 -15 9 -4 17 14 19 20 6 20 -5 0 -12 -7 -15 -16z"/>
<path d="M295 4520 c-10 -11 -13 -20 -8 -20 13 0 38 29 31 35 -3 3 -13 -4 -23
-15z"/>
<path d="M530 4511 c40 -35 46 -37 54 -16 3 9 0 15 -10 15 -8 0 -29 7 -47 16
l-32 15 35 -30z"/>
<path d="M2915 4500 c-3 -5 3 -10 14 -10 11 0 23 5 26 10 3 6 -3 10 -14 10
-11 0 -23 -4 -26 -10z"/>
<path d="M1314 4478 c-8 -13 16 -19 36 -8 11 6 20 12 20 13 0 5 -52 1 -56 -5z"/>
<path d="M1697 4469 c12 -12 25 -20 28 -17 3 3 -7 13 -22 23 l-28 17 22 -23z"/>
<path d="M1730 4481 c0 -5 7 -15 17 -22 15 -13 15 -12 4 9 -12 23 -21 28 -21
13z"/>
<path d="M552 4468 c5 -15 28 -23 28 -10 0 5 -7 13 -16 16 -10 4 -14 1 -12 -6z"/>
<path d="M310 4406 c0 -8 5 -18 10 -21 6 -4 8 -15 5 -26 -4 -10 -2 -19 4 -19
17 0 23 38 9 59 -15 24 -28 27 -28 7z"/>
<path d="M600 4380 c0 -17 -5 -19 -24 -14 -17 4 -32 0 -47 -15 l-22 -20 24
-10 c13 -5 37 -14 54 -19 26 -8 31 -15 37 -55 3 -25 11 -54 17 -64 9 -15 11
-9 10 32 -2 97 -3 94 34 88 23 -3 37 0 46 11 16 19 6 36 -19 36 -10 0 -22 5
-25 11 -4 6 -14 8 -23 4 -9 -3 -13 -3 -9 1 10 11 -13 34 -34 34 -12 0 -19 -7
-19 -20z m130 -50 c0 -5 -7 -6 -17 -3 -12 5 -14 3 -8 -7 5 -9 4 -11 -4 -6 -6
4 -9 12 -6 17 8 12 35 12 35 -1z m-110 -4 c0 -3 -4 -8 -10 -11 -5 -3 -10 -1
-10 4 0 6 5 11 10 11 6 0 10 -2 10 -4z"/>
<path d="M1605 4366 c-16 -6 -25 -15 -20 -18 13 -8 55 9 55 22 0 12 2 12 -35
-4z"/>
<path d="M2800 4370 c0 -5 5 -10 11 -10 5 0 7 5 4 10 -3 6 -8 10 -11 10 -2 0
-4 -4 -4 -10z"/>
<path d="M290 4360 c0 -5 4 -10 9 -10 6 0 13 5 16 10 3 6 -1 10 -9 10 -9 0
-16 -4 -16 -10z"/>
<path d="M1830 4288 c0 -19 2 -20 10 -8 13 19 13 30 0 30 -5 0 -10 -10 -10
-22z"/>
<path d="M704 4184 c-45 -47 -57 -55 -78 -50 -37 9 -41 -11 -6 -29 16 -8 37
-29 46 -46 18 -36 29 -33 15 4 -14 36 30 122 76 149 37 22 40 28 17 28 -9 0
-40 -25 -70 -56z"/>
<path d="M785 4209 c-11 -17 0 -20 21 -4 17 13 17 14 2 15 -9 0 -20 -5 -23
-11z"/>
<path d="M1145 4209 c-4 -6 -5 -12 -2 -15 2 -3 7 2 10 11 7 17 1 20 -8 4z"/>
<path d="M485 4199 c-4 -5 1 -9 9 -9 9 0 16 -6 16 -14 0 -8 6 -17 13 -19 9 -4
9 -6 0 -6 -6 -1 -15 4 -18 9 -10 16 -25 12 -19 -5 4 -8 1 -22 -6 -30 -17 -20
3 -45 36 -45 13 0 24 -4 24 -10 0 -5 4 -10 10 -10 5 0 8 19 6 43 -2 23 0 47 6
54 20 25 4 47 -34 49 -21 2 -40 -1 -43 -7z m35 -93 c0 -11 -19 -15 -25 -6 -3
5 1 10 9 10 9 0 16 -2 16 -4z"/>
<path d="M1074 4199 c-13 -21 -15 -77 -3 -85 16 -9 28 15 27 54 -1 35 -12 49
-24 31z"/>
<path d="M596 4191 c-4 -6 -2 -11 3 -11 6 0 11 -8 11 -17 0 -13 3 -14 12 -5
10 10 9 16 -4 28 -11 11 -18 12 -22 5z"/>
<path d="M1542 4179 c-7 -10 -12 -24 -12 -31 0 -7 5 -5 11 5 6 9 14 15 20 12
5 -4 9 1 9 9 0 24 -15 27 -28 5z"/>
<path d="M910 4150 c0 -5 9 -10 19 -10 11 0 23 -4 26 -10 3 -6 -1 -7 -9 -4
-37 14 -7 -33 40 -63 16 -11 17 -14 4 -22 -51 -33 -55 -39 -42 -60 15 -26 16
-42 1 -38 -6 1 -13 -11 -15 -28 -2 -16 -6 -42 -9 -57 -2 -16 0 -28 5 -28 6 0
10 5 10 10 0 6 4 10 10 10 5 0 8 -17 7 -37 -2 -30 2 -38 18 -41 13 -2 16 0 8
5 -18 13 -12 51 9 56 10 3 18 13 18 22 0 15 1 15 16 0 15 -15 15 -17 0 -34 -9
-10 -13 -21 -9 -25 4 -4 1 -12 -7 -17 -11 -8 -9 -9 8 -4 22 6 23 5 16 -17 -5
-12 -8 -51 -8 -85 1 -34 -2 -60 -7 -58 -4 3 -11 0 -15 -6 -5 -8 -3 -9 6 -4 10
6 11 0 5 -31 -9 -49 -12 -54 -36 -54 -23 0 -24 -11 -4 -49 13 -26 13 -29 -9
-41 -13 -7 -29 -22 -34 -34 -10 -20 -11 -20 -12 -1 -1 11 -2 27 -1 36 1 9 -5
19 -13 22 -17 7 -30 -8 -21 -23 4 -6 1 -9 -7 -8 -9 2 -12 -6 -10 -24 4 -42
-20 -34 -29 10 -1 4 -10 13 -20 20 -11 7 -19 19 -18 25 0 9 2 9 6 0 7 -18 23
-16 23 2 0 16 -9 19 -34 9 -14 -5 -13 -9 2 -32 16 -25 16 -26 -1 -19 -22 8
-22 -1 0 -25 16 -18 16 -18 0 -12 -24 9 -21 -8 5 -36 12 -13 23 -31 23 -39 4
-44 6 -51 19 -51 8 0 16 -6 19 -12 7 -24 38 12 31 36 -7 21 -6 21 14 2 19 -17
22 -17 28 -3 3 9 3 21 -1 27 -3 5 -2 10 4 10 5 0 11 -6 14 -12 4 -10 7 -10 18
0 19 18 29 15 29 -9 0 -18 4 -20 33 -14 41 9 99 63 95 90 -4 27 -22 25 -26 -3
-4 -28 -27 -39 -47 -22 -20 17 -19 30 3 30 18 0 72 54 72 73 0 5 -14 -5 -31
-22 -22 -24 -34 -30 -42 -22 -8 8 -6 15 9 26 10 8 14 15 8 15 -6 0 -17 -7 -24
-15 -19 -23 -31 -18 -24 10 4 15 1 32 -7 42 -12 14 -12 17 0 21 10 3 10 6 1
12 -9 6 -9 13 -1 28 6 11 11 29 11 40 0 11 11 27 25 36 18 12 25 25 25 48 0
25 3 29 12 20 7 -7 15 -12 18 -12 8 0 -3 81 -13 97 -10 15 13 63 29 63 22 0
43 43 39 77 -3 22 1 33 12 37 20 8 32 -9 26 -35 -3 -10 0 -19 6 -19 16 0 13
56 -4 70 -12 10 -18 10 -30 0 -9 -7 -27 -14 -41 -16 -21 -2 -24 1 -18 14 3 9
10 36 14 60 5 33 4 42 -7 42 -8 0 -12 -4 -9 -8 7 -12 -13 -82 -24 -82 -12 0
-18 31 -9 55 4 13 1 28 -8 40 -14 20 -14 20 -29 0 -14 -18 -17 -18 -27 -4 -7
8 -20 18 -29 22 -10 3 -18 14 -18 24 0 15 2 15 16 -3 15 -18 15 -18 10 6 -3
14 -6 28 -6 32 0 4 -6 5 -14 2 -8 -3 -17 -1 -21 5 -8 14 -45 14 -45 1z m143
-140 c-15 -22 -31 -40 -36 -40 -6 0 -3 8 6 18 10 10 17 22 17 26 0 9 23 35 32
36 4 0 -5 -18 -19 -40z m-43 -60 c0 -5 -5 -10 -11 -10 -5 0 -7 5 -4 10 3 6 8
10 11 10 2 0 4 -4 4 -10z m134 -29 c3 -4 3 -11 0 -14 -8 -8 -34 3 -34 14 0 11
27 12 34 0z m-178 -17 c-20 -20 -20 -28 -1 -20 8 3 15 2 15 -3 0 -15 -13 -21
-26 -11 -15 14 -6 50 13 50 12 0 12 -2 -1 -16z m108 -82 c-6 -20 -24 -32 -24
-14 1 23 14 52 21 45 5 -5 6 -18 3 -31z m-69 -442 c-3 -5 -13 -10 -21 -10 -8
0 -12 5 -9 10 3 6 13 10 21 10 8 0 12 -4 9 -10z"/>
<path d="M1402 4125 c0 -16 2 -22 5 -12 2 9 2 23 0 30 -3 6 -5 -1 -5 -18z"/>
<path d="M257 4110 c-4 -16 -2 -20 9 -16 8 3 14 -1 14 -9 0 -7 4 -17 10 -20
12 -7 2 22 -15 48 -12 17 -13 17 -18 -3z"/>
<path d="M1384 4077 c-17 -8 -23 -23 -28 -70 -9 -84 -8 -107 5 -107 6 0 9 6 6
13 -2 6 4 30 13 53 10 22 16 53 13 67 -3 15 0 34 7 42 14 17 14 17 -16 2z"/>
<path d="M1173 4057 c4 -10 0 -34 -8 -53 -8 -19 -10 -34 -5 -34 5 0 15 18 21
40 10 33 10 43 -1 53 -10 10 -12 8 -7 -6z"/>
<path d="M186 3991 c-4 -7 -5 -15 -2 -18 9 -9 19 4 14 18 -4 11 -6 11 -12 0z"/>
<path d="M511 3973 c-1 -18 4 -33 9 -33 12 0 12 17 0 45 -7 17 -9 15 -9 -12z"/>
<path d="M240 3962 c0 -12 19 -26 26 -19 2 2 -2 10 -11 17 -9 8 -15 8 -15 2z"/>
<path d="M476 3946 c3 -9 11 -16 16 -16 13 0 5 23 -10 28 -7 2 -10 -2 -6 -12z"/>
<path d="M400 3916 c0 -8 7 -17 16 -20 8 -3 12 -10 9 -16 -3 -5 -1 -10 4 -10
14 0 14 16 1 41 -12 22 -30 25 -30 5z"/>
<path d="M897 3913 c-2 -10 -8 -26 -12 -35 -4 -10 -3 -18 2 -18 5 0 14 16 20
35 6 19 8 35 3 35 -4 0 -10 -8 -13 -17z"/>
<path d="M505 3880 c-5 -15 -1 -26 12 -35 26 -20 41 -18 48 6 8 23 0 34 -32
43 -16 5 -23 2 -28 -14z"/>
<path d="M1351 3854 c0 -11 3 -14 6 -6 3 7 2 16 -1 19 -3 4 -6 -2 -5 -13z"/>
<path d="M596 3835 c-3 -9 0 -15 9 -15 8 0 15 7 15 15 0 8 -4 15 -9 15 -5 0
-11 -7 -15 -15z"/>
<path d="M1163 3774 c22 -20 43 -32 49 -28 9 6 9 9 0 12 -7 2 -12 10 -12 17 0
11 -49 36 -69 35 -3 0 11 -16 32 -36z"/>
<path d="M690 3705 c13 -14 27 -25 31 -25 5 0 -2 11 -15 25 -13 14 -27 25 -31
25 -5 0 2 -11 15 -25z"/>
<path d="M240 3696 c0 -19 29 -48 41 -41 15 10 10 35 -6 35 -8 0 -15 5 -15 10
0 6 -4 10 -10 10 -5 0 -10 -6 -10 -14z"/>
<path d="M470 3683 c0 -5 8 -17 17 -28 14 -18 15 -18 9 -2 -3 10 -6 23 -6 28
0 5 -4 9 -10 9 -5 0 -10 -3 -10 -7z"/>
<path d="M805 3680 c-3 -5 -1 -10 4 -10 6 0 11 5 11 10 0 6 -2 10 -4 10 -3 0
-8 -4 -11 -10z"/>
<path d="M741 3661 c-9 -6 -10 -11 -2 -15 6 -4 11 -2 11 5 0 7 8 5 21 -7 22
-19 22 -19 8 4 -15 24 -18 25 -38 13z"/>
<path d="M819 3642 c7 -12 9 -27 6 -32 -3 -5 -1 -20 6 -32 7 -12 14 -38 15
-57 4 -42 21 -62 34 -41 13 21 12 67 -2 76 -8 5 -9 2 -5 -9 3 -9 2 -19 -3 -22
-5 -3 -8 15 -7 40 2 37 -3 49 -27 72 -25 25 -27 25 -17 5z"/>
<path d="M340 3618 c0 -7 9 -26 20 -43 19 -28 20 -29 20 -7 0 28 -17 62 -30
62 -6 0 -10 -6 -10 -12z"/>
<path d="M490 3616 c0 -2 8 -10 18 -17 15 -13 16 -12 3 4 -13 16 -21 21 -21
13z"/>
<path d="M325 3560 c3 -5 8 -10 11 -10 2 0 4 5 4 10 0 6 -5 10 -11 10 -5 0 -7
-4 -4 -10z"/>
<path d="M340 3521 c0 -25 6 -27 13 -6 4 8 2 17 -3 20 -6 4 -10 -3 -10 -14z"/>
<path d="M2477 3533 c-4 -3 -23 -7 -44 -8 -55 -4 -104 -14 -122 -26 -11 -7 -2
-8 32 -6 26 2 47 -1 47 -6 0 -5 11 -7 25 -5 23 5 30 -2 26 -25 -1 -5 8 -2 20
7 12 8 28 12 35 9 8 -3 14 1 14 11 0 9 5 16 10 16 6 0 10 10 10 23 l-1 22 -21
-25 c-13 -15 -19 -18 -15 -8 6 18 -5 32 -16 21z"/>
<path d="M746 3513 c-4 -9 -1 -23 7 -30 12 -12 13 -9 9 17 -5 34 -7 37 -16 13z"/>
<path d="M900 3510 c0 -6 7 -10 15 -10 8 0 15 2 15 4 0 2 -7 6 -15 10 -8 3
-15 1 -15 -4z"/>
<path d="M1160 3495 c-20 -24 -6 -28 15 -5 10 11 13 20 8 20 -6 0 -16 -7 -23
-15z"/>
<path d="M706 3455 c-3 -9 -6 -26 -5 -38 1 -14 4 -9 9 13 9 37 7 52 -4 25z"/>
<path d="M930 3445 c0 -8 5 -15 10 -15 6 0 10 7 10 15 0 8 -4 15 -10 15 -5 0
-10 -7 -10 -15z"/>
<path d="M296 3442 c-3 -5 1 -9 9 -9 8 0 12 4 9 9 -3 4 -7 8 -9 8 -2 0 -6 -4
-9 -8z"/>
<path d="M1857 3423 c-4 -3 -7 -11 -7 -17 0 -6 5 -5 12 2 6 6 9 14 7 17 -3 3
-9 2 -12 -2z"/>
<path d="M317 3413 c-16 -4 -18 -11 -12 -39 3 -19 2 -34 -4 -34 -5 0 -7 -9 -4
-19 3 -12 11 -17 19 -14 8 3 13 8 10 10 -2 3 2 26 10 51 7 26 14 48 14 50 0 2
-9 1 -33 -5z"/>
<path d="M589 3395 c-5 -5 1 -53 16 -128 4 -18 2 -26 -5 -22 -17 11 -11 -4 11
-26 11 -11 23 -19 25 -16 3 3 7 28 10 57 3 46 2 51 -11 40 -13 -10 -15 -8 -16
14 -2 30 -2 33 -15 64 -5 13 -12 20 -15 17z"/>
<path d="M384 3301 c13 -14 21 -31 19 -38 -2 -7 0 -20 6 -30 9 -14 11 -9 9 28
-1 25 1 49 4 55 3 5 -9 9 -28 10 l-34 1 24 -26z"/>
<path d="M970 3285 c-7 -8 -9 -15 -4 -15 5 0 1 -7 -9 -14 -18 -14 -18 -15 0
-24 17 -10 16 -11 -7 -21 -16 -6 -19 -10 -8 -10 9 -1 26 11 37 25 22 27 28 50
12 40 -5 -4 -7 3 -4 14 6 24 0 26 -17 5z"/>
<path d="M1570 3254 c-45 -37 -51 -45 -44 -67 3 -10 0 -24 -6 -32 -10 -12 -9
-16 4 -21 9 -3 23 -4 31 0 8 3 15 1 15 -4 0 -6 9 -10 20 -10 14 0 21 9 26 38
4 20 13 46 20 57 17 24 18 43 2 27 -18 -18 -26 -15 -30 15 l-3 26 -35 -29z
m10 -34 c0 -5 -5 -10 -11 -10 -5 0 -7 5 -4 10 3 6 8 10 11 10 2 0 4 -4 4 -10z"/>
<path d="M341 3225 c-17 -19 -34 -47 -37 -60 -3 -14 -11 -22 -16 -19 -5 4 -8
15 -5 25 6 23 -8 25 -17 3 -7 -17 3 -34 42 -71 20 -20 23 -21 29 -6 4 9 -1 29
-10 45 -14 24 -14 28 -1 28 8 0 12 5 9 10 -3 6 -2 10 4 10 10 0 44 60 37 67
-2 2 -17 -12 -35 -32z"/>
<path d="M687 3186 c-16 -12 -16 -14 -1 -20 26 -10 41 -7 24 5 -12 9 -11 10 8
6 25 -6 30 8 6 17 -19 7 -15 8 -37 -8z"/>
<path d="M1729 3181 c-7 -11 -19 -16 -31 -13 -13 3 -18 -1 -18 -17 0 -35 34
-26 53 14 18 37 15 47 -4 16z"/>
<path d="M595 3170 c10 -11 13 -20 7 -20 -17 0 -15 -25 2 -39 12 -10 15 -7 18
16 3 27 -17 63 -36 63 -5 0 -1 -9 9 -20z"/>
<path d="M647 3148 c4 -7 8 -19 10 -27 2 -18 23 -39 23 -24 0 22 -20 63 -30
63 -7 0 -8 -5 -3 -12z"/>
<path d="M1830 3135 c0 -8 2 -15 4 -15 2 0 6 7 10 15 3 8 1 15 -4 15 -6 0 -10
-7 -10 -15z"/>
<path d="M2220 3100 c0 -5 5 -10 11 -10 5 0 7 5 4 10 -3 6 -8 10 -11 10 -2 0
-4 -4 -4 -10z"/>
<path d="M1686 3085 c-3 -8 -1 -15 3 -15 5 0 11 7 15 15 3 8 1 15 -3 15 -5 0
-11 -7 -15 -15z"/>
<path d="M2466 3092 c-2 -4 4 -9 15 -9 11 -1 17 2 14 8 -7 11 -22 12 -29 1z"/>
<path d="M560 3080 c0 -5 5 -10 10 -10 6 0 10 5 10 10 0 6 -4 10 -10 10 -5 0
-10 -4 -10 -10z"/>
<path d="M1360 3070 c-15 -11 -29 -15 -36 -10 -15 13 -54 -17 -54 -41 0 -11
-4 -17 -10 -14 -5 3 -10 -3 -10 -14 0 -11 -12 -33 -26 -50 -26 -31 -25 -51 3
-51 13 0 13 -3 3 -15 -12 -14 -15 -14 -31 1 -19 17 -55 12 -44 -6 4 -6 3 -19
-1 -28 -4 -9 -8 -33 -10 -52 l-3 -35 28 34 28 34 -3 -59 c-2 -38 3 -67 12 -81
18 -29 18 -33 -4 -33 -10 0 -23 -5 -30 -12 -9 -9 -12 -8 -12 5 0 21 -7 21 -26
2 -33 -32 -41 -10 -18 49 9 22 -19 21 -39 -2 -19 -20 -23 -37 -7 -27 6 3 10 1
10 -4 0 -6 -6 -11 -12 -11 -16 0 -46 -50 -68 -110 -8 -25 -21 -44 -27 -43 -6
1 -14 -4 -17 -12 -6 -16 18 -16 43 -1 11 7 13 5 8 -7 -9 -24 13 -67 33 -67 9
0 25 9 34 19 14 15 67 33 96 33 18 0 31 26 28 54 -3 26 0 34 17 39 11 4 25 7
31 6 16 -2 27 89 13 105 -9 12 -5 13 22 8 19 -4 36 -7 39 -6 56 1 52 14 -10
41 -53 23 -62 31 -32 28 25 -1 72 32 72 52 0 10 -6 26 -14 36 -12 17 -12 21 5
33 11 7 26 27 35 44 15 29 15 32 -5 52 -21 20 -21 20 -21 1 -1 -23 -24 -58
-33 -49 -3 3 -3 13 0 22 5 11 3 13 -8 7 -11 -7 -12 -6 -2 7 7 8 10 17 7 20 -3
3 7 19 21 34 17 18 22 30 15 32 -7 3 2 17 21 33 38 32 28 40 -11 9z m-40 -35
c-7 -9 -15 -13 -17 -11 -7 7 7 26 19 26 6 0 6 -6 -2 -15z m-35 -75 c3 -5 1
-10 -4 -10 -6 0 -11 5 -11 10 0 6 2 10 4 10 3 0 8 -4 11 -10z m55 -87 c0 -3
-6 -3 -13 0 -7 3 -19 -4 -25 -14 -7 -10 -16 -19 -21 -19 -5 0 0 11 12 24 18
20 47 26 47 9z m-105 -132 c-4 -3 -13 3 -20 13 -11 15 -12 24 -3 40 11 20 12
19 20 -13 5 -18 6 -36 3 -40z m-10 -41 c3 -5 1 -10 -4 -10 -6 0 -11 5 -11 10
0 6 2 10 4 10 3 0 8 -4 11 -10z m-177 -233 c2 -10 -3 -17 -12 -17 -10 0 -16 9
-16 21 0 24 23 21 28 -4z"/>
<path d="M2239 3073 c-13 -16 -12 -17 4 -4 9 7 17 15 17 17 0 8 -8 3 -21 -13z"/>
<path d="M1650 3043 c-8 -3 -22 -7 -30 -10 -8 -4 -22 -5 -29 -4 -13 2 -13 1 0
-15 13 -16 12 -17 -8 -12 -21 6 -52 -16 -40 -28 10 -10 77 8 77 22 0 7 4 16
10 19 6 3 7 -1 4 -9 -10 -27 12 -17 25 10 13 30 12 33 -9 27z"/>
<path d="M1660 2914 c0 -8 5 -12 10 -9 6 3 10 10 10 16 0 5 -4 9 -10 9 -5 0
-10 -7 -10 -16z"/>
<path d="M1590 2870 c0 -5 -9 -10 -19 -10 -11 0 -23 -6 -27 -12 -4 -7 -4 -10
1 -6 11 10 47 -11 40 -23 -4 -5 -18 -6 -33 -3 -26 6 -26 6 -7 -9 16 -12 17
-18 7 -30 -10 -11 -9 -17 2 -26 12 -10 13 -8 8 11 -5 21 -4 22 11 9 9 -7 17
-10 17 -5 1 5 3 33 6 62 3 28 3 52 0 52 -3 0 -6 -4 -6 -10z"/>
<path d="M460 2855 c0 -8 -7 -15 -15 -15 -8 0 -20 -9 -27 -20 -7 -11 -20 -20
-28 -21 -8 0 -5 -4 8 -10 21 -8 22 -10 8 -25 -20 -19 -20 -25 -1 -18 19 8 49
-22 39 -38 -6 -10 -4 -10 8 0 14 11 18 10 28 -8 13 -23 30 -18 30 10 0 10 8
21 18 24 31 10 21 57 -21 99 -43 42 -47 43 -47 22z m30 -71 c0 -9 -5 -14 -12
-12 -18 6 -21 28 -4 28 9 0 16 -7 16 -16z"/>
<path d="M1646 2849 c-5 -13 -10 -49 -12 -79 l-3 -55 17 35 c9 19 23 41 32 47
11 10 12 15 3 21 -7 4 -16 18 -21 32 l-9 24 -7 -25z"/>
<path d="M1113 2838 c8 -22 -12 -35 -25 -17 -8 11 -8 10 -4 -4 3 -10 6 -21 6
-23 0 -13 21 -1 31 17 8 16 8 24 -2 33 -9 8 -11 7 -6 -6z"/>
<path d="M3141 2794 c0 -11 3 -14 6 -6 3 7 2 16 -1 19 -3 4 -6 -2 -5 -13z"/>
<path d="M601 2782 c0 -13 -10 -26 -23 -31 -21 -8 -21 -10 -5 -16 25 -10 39 7
34 41 -3 23 -4 24 -6 6z"/>
<path d="M1128 2742 c-10 -2 -18 -8 -18 -13 0 -11 11 -11 30 1 18 11 11 18
-12 12z"/>
<path d="M536 2722 c-3 -5 1 -9 9 -9 8 0 12 4 9 9 -3 4 -7 8 -9 8 -2 0 -6 -4
-9 -8z"/>
<path d="M1617 2663 c-3 -21 -8 -46 -12 -55 -4 -10 -3 -18 2 -18 5 0 14 20 21
45 15 57 15 59 4 63 -5 1 -12 -14 -15 -35z"/>
<path d="M910 2665 c7 -9 15 -13 17 -11 7 7 -7 26 -19 26 -6 0 -6 -6 2 -15z"/>
<path d="M1642 2610 c-12 -35 -20 -66 -18 -68 6 -5 47 109 43 121 -2 6 -13
-18 -25 -53z"/>
<path d="M452 2635 c-7 -14 -12 -33 -12 -42 0 -27 -73 -156 -92 -161 -10 -2
-15 -9 -12 -14 3 -5 -2 -19 -12 -31 -9 -12 -2 -6 17 13 19 19 41 44 49 56 21
30 72 44 131 37 47 -6 50 -8 47 -32 -3 -23 1 -26 24 -25 15 1 26 -2 25 -5 -1
-3 3 -6 8 -6 6 0 10 16 10 35 -1 20 6 40 15 47 12 9 13 16 4 30 -15 24 -120
26 -134 3 -14 -22 6 -25 35 -6 21 14 25 14 25 2 0 -8 -9 -18 -20 -21 -22 -7
-140 -15 -140 -9 0 22 40 94 63 113 27 23 28 25 11 32 -29 11 -30 11 -42 -16z"/>
<path d="M750 2612 c0 -5 11 -26 25 -46 14 -20 24 -40 23 -44 -1 -4 2 -16 6
-27 5 -11 10 -27 13 -35 7 -19 33 73 33 117 0 17 -4 34 -9 37 -9 6 -35 -20
-44 -44 -3 -11 -8 -7 -15 12 -11 27 -32 47 -32 30z"/>
<path d="M1535 2610 c3 -5 10 -10 16 -10 5 0 9 5 9 10 0 6 -7 10 -16 10 -8 0
-12 -4 -9 -10z"/>
<path d="M1443 2583 c-4 -10 -11 -21 -17 -25 -13 -8 4 -42 18 -38 5 1 12 -4
16 -10 12 -20 27 -3 35 36 4 26 3 39 -7 45 -21 14 -38 10 -45 -8z"/>
<path d="M1556 2563 c-3 -10 -9 -24 -12 -30 -3 -7 1 -13 9 -13 13 0 26 27 27
53 0 14 -18 7 -24 -10z"/>
<path d="M710 2413 l-23 -56 23 -19 c15 -12 32 -17 47 -13 13 3 23 1 23 -5 0
-5 -4 -11 -10 -11 -5 -1 -14 -2 -19 -3 -15 -2 -26 -16 -12 -16 8 0 11 -13 9
-36 -2 -26 2 -38 12 -42 13 -4 13 -3 2 11 -8 9 -10 22 -6 29 11 18 57 54 65
51 4 -1 10 4 13 13 3 8 2 12 -3 9 -17 -10 -22 13 -9 36 11 18 11 22 0 26 -7 3
-22 15 -34 27 l-21 21 7 -27 c5 -23 1 -29 -25 -42 -26 -13 -31 -13 -36 0 -3 8
0 21 6 28 15 18 32 76 22 76 -4 0 -18 -25 -31 -57z"/>
<path d="M821 2414 c0 -11 3 -14 6 -6 3 7 2 16 -1 19 -3 4 -6 -2 -5 -13z"/>
<path d="M1348 2402 c-10 -2 -21 -16 -24 -30 -9 -36 -23 -52 -45 -52 -10 0
-24 -10 -30 -22 -10 -18 -8 -24 7 -36 14 -10 15 -16 6 -19 -23 -9 -33 -40 -17
-53 13 -11 14 -10 9 4 -4 11 2 26 16 41 20 22 21 25 6 31 -9 3 -16 12 -16 20
0 11 7 10 33 -3 45 -24 41 -79 -7 -96 -10 -4 -16 -10 -13 -13 10 -10 64 25 91
60 19 25 31 33 44 29 15 -6 15 -4 -2 15 -18 20 -19 54 -2 92 7 17 -29 38 -56
32z"/>
<path d="M2154 2366 c-3 -8 -1 -23 5 -33 9 -15 10 -13 11 15 0 34 -7 42 -16
18z"/>
<path d="M923 2324 c-14 -9 -15 -16 -7 -24 9 -9 18 -8 37 5 14 9 31 15 39 14
7 -1 23 2 36 7 18 8 12 10 -33 10 -30 1 -63 -5 -72 -12z"/>
<path d="M1471 2333 c0 -6 -4 -20 -7 -30 -5 -14 -4 -15 5 -7 7 7 11 20 8 30
-3 11 -5 14 -6 7z"/>
<path d="M880 2285 c-8 -9 -8 -15 -2 -15 12 0 26 19 19 26 -2 2 -10 -2 -17
-11z"/>
<path d="M955 2280 c-3 -5 0 -10 8 -10 8 0 20 -7 27 -15 7 -8 17 -15 22 -15
13 0 -10 28 -33 41 -11 6 -20 5 -24 -1z"/>
<path d="M681 2257 c-7 -13 -26 -28 -43 -35 -18 -6 -29 -14 -26 -17 13 -13
118 45 118 67 0 18 -37 7 -49 -15z"/>
<path d="M1441 2257 c2 -1 13 -9 24 -17 19 -14 19 -14 6 3 -7 9 -18 17 -24 17
-6 0 -8 -1 -6 -3z"/>
<path d="M810 2239 c0 -5 5 -7 10 -4 6 3 10 8 10 11 0 2 -4 4 -10 4 -5 0 -10
-5 -10 -11z"/>
<path d="M960 2236 c0 -2 7 -6 15 -10 8 -3 15 -1 15 4 0 6 -7 10 -15 10 -8 0
-15 -2 -15 -4z"/>
<path d="M382 2207 c-12 -13 -22 -33 -22 -46 l0 -22 26 20 c15 12 33 21 41 21
9 0 13 6 9 15 -4 10 1 15 17 16 21 0 21 1 2 9 -33 14 -50 11 -73 -13z"/>
<path d="M1000 2219 c0 -12 38 -31 44 -21 2 4 -7 12 -20 19 -13 6 -24 7 -24 2z"/>
<path d="M1155 2150 c-10 -11 -14 -20 -8 -20 5 0 18 9 28 20 10 11 14 20 8 20
-5 0 -18 -9 -28 -20z"/>
<path d="M530 2143 c-43 -13 -44 -13 -32 -25 17 -17 73 -17 107 0 17 8 25 17
18 19 -7 3 -20 0 -30 -6 -13 -7 -22 -6 -33 3 -8 8 -22 11 -30 9z"/>
<path d="M419 2117 c7 -9 18 -17 24 -17 6 0 20 -8 31 -19 25 -22 66 -36 66
-22 0 5 -14 12 -31 16 -19 4 -33 15 -36 26 -3 10 -11 19 -18 19 -8 0 -22 3
-32 7 -16 6 -16 5 -4 -10z"/>
<path d="M1368 2103 c-10 -2 -18 -9 -18 -14 0 -14 16 -11 30 6 7 8 11 14 9 14
-2 -1 -12 -3 -21 -6z"/>
<path d="M1098 2093 c-10 -2 -18 -9 -18 -15 0 -5 7 -8 14 -5 10 4 13 1 10 -7
-3 -7 -18 -13 -34 -13 -30 0 -41 12 -18 19 8 3 7 6 -3 10 -25 10 -43 -6 -31
-28 10 -19 -9 -69 -33 -86 -15 -11 20 -10 51 2 21 8 29 8 36 -2 6 -10 8 -9 8
3 0 9 7 22 15 29 8 7 12 16 9 21 -3 5 2 9 10 9 9 0 16 -4 16 -10 0 -5 7 -10
16 -10 20 0 13 22 -12 35 -12 6 -18 18 -16 33 2 12 2 21 0 21 -2 -1 -11 -3
-20 -6z m-58 -93 c0 -11 -7 -20 -15 -20 -18 0 -19 12 -3 28 16 16 18 15 18 -8z"/>
<path d="M1316 2085 c-11 -8 -17 -17 -14 -20 2 -3 13 4 23 15 21 23 18 25 -9
5z"/>
<path d="M2275 2089 c-4 -6 -5 -12 -2 -15 2 -3 7 2 10 11 7 17 1 20 -8 4z"/>
<path d="M380 2068 c0 -7 5 -20 10 -28 7 -11 12 -12 21 -3 9 9 8 15 -4 27 -19
19 -27 20 -27 4z"/>
<path d="M916 2067 c-14 -10 -16 -21 -11 -50 4 -20 12 -37 17 -37 6 0 8 6 5
14 -4 9 0 12 11 9 14 -3 17 3 17 33 0 42 -12 51 -39 31z"/>
<path d="M1186 2021 c-3 -5 1 -11 9 -14 9 -4 12 -1 8 9 -6 16 -10 17 -17 5z"/>
<path d="M1111 1984 c0 -11 3 -14 6 -6 3 7 2 16 -1 19 -3 4 -6 -2 -5 -13z"/>
<path d="M1015 1939 c-4 -11 -4 -23 0 -27 7 -7 25 17 25 36 0 20 -18 14 -25
-9z"/>
<path d="M690 1925 c0 -8 2 -15 4 -15 2 0 6 7 10 15 3 8 1 15 -4 15 -6 0 -10
-7 -10 -15z"/>
<path d="M671 1872 c-10 -19 -4 -62 8 -62 3 0 6 18 6 40 0 46 -1 47 -14 22z"/>
<path d="M2782 1866 c-15 -34 -12 -49 6 -37 8 5 12 20 10 37 l-4 29 -12 -29z"/>
<path d="M956 1832 c-7 -12 6 -62 17 -62 5 0 3 -8 -6 -17 -11 -14 -12 -21 -3
-29 18 -17 36 -5 36 24 0 15 7 40 15 56 8 15 15 29 15 31 0 6 -70 3 -74 -3z
m34 -12 c0 -5 -7 -10 -15 -10 -8 0 -15 5 -15 10 0 6 7 10 15 10 8 0 15 -4 15
-10z"/>
<path d="M3427 1830 c-21 -4 -46 -15 -55 -24 -16 -15 -15 -21 7 -83 26 -75 51
-120 51 -90 0 18 34 79 41 73 4 -4 162 23 227 39 12 3 22 12 22 20 0 23 -39
42 -122 59 -82 17 -111 18 -171 6z"/>
<path d="M730 1793 c-8 -13 -13 -14 -16 -5 -10 23 -21 12 -16 -18 5 -38 13
-38 35 1 19 34 17 53 -3 22z"/>
<path d="M597 1772 c-32 -34 -35 -47 -6 -32 11 7 18 14 15 17 -3 4 1 15 11 25
26 29 9 21 -20 -10z"/>
<path d="M1130 1785 c-7 -8 -21 -15 -31 -15 -11 0 -19 -4 -19 -10 0 -5 -8 -7
-17 -4 -10 3 -5 -2 10 -11 16 -9 30 -15 31 -13 28 38 46 68 43 68 -3 0 -10 -7
-17 -15z"/>
<path d="M2210 1786 c0 -9 30 -14 35 -6 4 6 -3 10 -14 10 -12 0 -21 -2 -21 -4z"/>
<path d="M671 1744 c0 -11 3 -14 6 -6 3 7 2 16 -1 19 -3 4 -6 -2 -5 -13z"/>
<path d="M1111 1726 c-8 -9 -10 -24 -5 -38 7 -21 8 -20 15 12 9 41 6 46 -10
26z"/>
<path d="M2180 1707 c0 -41 14 -50 24 -15 3 14 -1 29 -9 38 -13 13 -15 10 -15
-23z"/>
<path d="M3620 1707 c-136 -36 -170 -50 -170 -72 0 -21 32 -34 81 -33 24 1 80
-2 124 -6 78 -8 82 -8 135 22 30 16 83 38 118 48 34 10 62 21 62 25 0 16 -30
27 -90 33 -36 4 -81 9 -100 11 -20 3 -88 -9 -160 -28z"/>
<path d="M532 1688 c-14 -14 -16 -28 -3 -28 9 0 24 30 18 36 -2 2 -9 -2 -15
-8z"/>
<path d="M1026 1649 c-33 -39 -38 -59 -15 -59 5 0 9 9 9 21 0 11 3 18 8 16 4
-3 14 11 23 29 9 19 15 34 14 34 -2 0 -19 -19 -39 -41z"/>
<path d="M2270 1630 c0 -5 5 -10 11 -10 5 0 7 5 4 10 -3 6 -8 10 -11 10 -2 0
-4 -4 -4 -10z"/>
<path d="M2355 1610 c8 -13 72 -40 94 -40 9 0 29 -7 45 -15 16 -9 31 -13 34
-10 7 7 5 8 -73 37 -102 38 -107 39 -100 28z"/>
<path d="M900 1599 c0 -6 9 -8 21 -4 19 6 21 4 16 -14 -3 -14 0 -21 9 -21 8 0
17 -7 20 -15 4 -8 13 -15 21 -15 9 0 13 6 10 14 -3 8 -1 16 5 18 13 5 2 28
-13 28 -5 0 -9 -7 -9 -16 0 -8 -4 -13 -10 -9 -5 3 -7 12 -4 19 3 8 -4 16 -18
20 -34 9 -48 7 -48 -5z"/>
<path d="M3883 1603 c9 -2 23 -2 30 0 6 3 -1 5 -18 5 -16 0 -22 -2 -12 -5z"/>
<path d="M3935 1600 c-3 -5 1 -10 9 -10 9 0 16 5 16 10 0 6 -4 10 -9 10 -6 0
-13 -4 -16 -10z"/>
<path d="M3998 1593 c12 -2 32 -2 45 0 12 2 2 4 -23 4 -25 0 -35 -2 -22 -4z"/>
<path d="M2815 1580 c-3 -5 -1 -10 4 -10 6 0 11 5 11 10 0 6 -2 10 -4 10 -3 0
-8 -4 -11 -10z"/>
<path d="M1010 1541 c0 -12 6 -21 15 -21 8 0 15 4 15 9 0 5 -7 14 -15 21 -13
10 -15 9 -15 -9z"/>
<path d="M2556 1531 c-3 -4 6 -6 19 -3 14 2 25 6 25 8 0 8 -39 4 -44 -5z"/>
<path d="M2636 1485 c-9 -27 -11 -43 -4 -39 7 5 9 -2 6 -20 -6 -31 6 -44 17
-18 13 30 14 92 2 92 -6 0 -2 7 9 15 16 12 17 14 2 15 -10 0 -21 -16 -32 -45z"/>
<path d="M2177 1506 c-4 -9 -12 -16 -20 -16 -7 0 -23 -13 -34 -29 -18 -24 -20
-31 -9 -47 21 -32 18 -72 -5 -79 -15 -5 -18 -10 -10 -15 8 -4 -6 -14 -33 -24
-53 -20 -57 -31 -18 -44 l27 -9 -40 -20 c-42 -21 -96 -32 -203 -38 -35 -2 -64
-5 -65 -7 -1 -1 -8 -13 -14 -25 -17 -30 -16 -55 1 -79 8 -10 12 -29 9 -41 -3
-16 0 -24 11 -28 52 -16 51 -16 37 -24 -8 -5 -10 -14 -6 -21 20 -33 313 15
504 81 174 61 247 84 341 109 86 23 133 47 181 93 30 28 30 58 1 114 l-16 33
-126 -1 c-184 -1 -369 45 -417 104 -22 28 -87 36 -96 13z m108 -156 c3 -6 -1
-7 -9 -4 -18 7 -21 14 -7 14 6 0 13 -4 16 -10z"/>
<path d="M645 1478 c-2 -7 -9 -31 -16 -53 -6 -22 -22 -61 -35 -87 -42 -83 -45
-120 -18 -195 13 -36 24 -67 24 -68 0 -6 58 -25 92 -31 l36 -6 8 59 c4 32 13
76 21 98 22 61 52 255 39 253 -6 0 -31 8 -56 20 -51 24 -89 28 -95 10z"/>
<path d="M3503 1453 c-34 -17 -45 -38 -64 -118 -7 -27 -16 -58 -20 -67 -6 -11
-4 -18 4 -21 6 -3 3 -6 -8 -6 -23 -1 -63 -41 -42 -42 6 0 3 -4 -8 -9 -16 -7
-13 -9 17 -9 46 -1 53 -12 28 -40 -15 -18 -33 -24 -96 -28 -66 -5 -81 -10
-110 -36 -36 -31 -42 -58 -23 -100 8 -17 17 -23 30 -20 12 3 19 0 19 -8 0 -11
2 -11 10 1 8 12 10 12 10 1 0 -8 3 -11 7 -8 3 4 13 1 21 -6 13 -10 14 -9 8 1
-6 10 -2 10 18 0 14 -6 26 -16 26 -22 0 -6 5 -4 10 4 8 12 10 12 10 -5 0 -17
2 -17 10 -5 6 10 10 11 10 3 0 -42 405 42 567 118 37 17 100 46 140 64 45 21
78 44 90 61 10 16 26 37 36 46 10 11 17 33 16 56 0 36 0 37 -16 15 -19 -28
-38 -30 -23 -3 8 15 7 26 -6 45 l-17 25 -31 -23 c-51 -39 -75 -41 -31 -3 22
20 47 35 57 36 11 0 15 6 12 23 -4 15 1 11 15 -13 11 -19 20 -30 20 -25 0 6
-5 20 -12 32 -12 21 -20 22 -202 28 -233 7 -220 5 -276 38 -60 35 -158 45
-206 20z m307 -158 c11 -13 11 -18 0 -28 -10 -10 -12 -9 -7 5 4 11 0 21 -11
27 -9 6 -12 11 -6 11 6 0 17 -7 24 -15z m-23 -21 c-7 -7 -37 7 -37 17 0 6 9 5
21 -1 11 -7 19 -14 16 -16z"/>
<path d="M1140 1281 c0 -6 4 -13 10 -16 6 -3 7 1 4 9 -7 18 -14 21 -14 7z"/>
<path d="M782 1177 c-28 -13 -36 -42 -36 -137 -1 -56 3 -81 17 -100 19 -27 23
-45 7 -35 -5 3 -10 -3 -10 -14 0 -11 14 -30 32 -43 30 -21 41 -23 148 -20 63
2 119 8 125 13 5 5 26 9 48 9 l38 0 -20 -28 -20 -28 27 3 c53 6 249 55 332 83
67 24 92 38 117 67 42 49 42 83 2 125 -24 27 -28 28 -17 8 7 -13 19 -30 26
-38 25 -28 11 -33 -23 -8 -31 24 -35 25 -35 9 0 -15 -2 -16 -10 -3 -13 20 -12
28 3 33 6 2 2 3 -9 1 -12 -2 -27 2 -33 10 -9 11 -6 14 14 14 27 0 42 8 33 17
-5 5 -30 10 -158 32 -47 8 -31 -8 27 -27 28 -9 55 -27 70 -47 l25 -32 -42 -12
c-53 -16 -153 -1 -243 37 -87 37 -149 64 -169 74 -14 8 -128 31 -218 44 -14 2
-35 -1 -48 -7z"/>
</g>
</svg>
